<svg width="34" height="34" fill="none" xmlns="http://www.w3.org/2000/svg"><path fill-rule="evenodd" clip-rule="evenodd" d="M11.645 7.07a.637.637 0 00-.232.178c-.037.058-.258.606-.491 1.22-.462 1.215-.49 1.349-.336 1.576.173.255.206.265 1.518.478 1.36.22 1.438.221 1.653.018a.6.6 0 00-.012-.9c-.123-.111-.202-.143-.491-.197a3.147 3.147 0 01-.36-.078c-.03-.031.97-.417 1.379-.532.963-.27 2.127-.376 3.07-.279 2.903.3 5.427 2.037 6.682 4.598.385.786.601 1.448.772 2.366.099.53.1 2.165 0 2.698-.236 1.279-.633 2.267-1.338 3.327-.333.502-.37.576-.37.737 0 .38.277.644.648.617a.657.657 0 00.323-.102c.19-.135.802-1.086 1.122-1.742a9.56 9.56 0 00.866-2.74c.101-.615.101-2.28 0-2.893-.337-2.033-1.217-3.8-2.607-5.234-1.476-1.522-3.317-2.47-5.494-2.827-.655-.108-2.206-.099-2.875.017a10.08 10.08 0 00-2.42.718c-.138.062-.258.106-.267.096-.01-.009.022-.123.07-.254.146-.4.04-.717-.291-.867-.203-.092-.314-.092-.52.001zm-2.817 4.224c-.418.255-1.227 1.897-1.554 3.153-.228.877-.274 1.285-.274 2.42 0 .93.01 1.115.09 1.558.482 2.689 1.938 4.934 4.17 6.43 1.164.78 2.752 1.363 4.165 1.53 1.524.18 3.171-.02 4.527-.55.222-.088.412-.15.422-.141.01.01-.027.135-.08.278-.165.438-.112.719.176.932.23.17.656.105.82-.125.044-.062.274-.634.512-1.273.376-1.012.428-1.18.405-1.316a.817.817 0 00-.33-.46c-.089-.048-2.328-.43-2.516-.43a.613.613 0 00-.579.78c.088.293.253.408.71.499l.175.035-.492.162a8.33 8.33 0 01-7.602-1.234 10.761 10.761 0 01-1.45-1.38 8.499 8.499 0 01-1.619-3.141c-.195-.743-.242-1.086-.263-1.96-.017-.704-.008-.903.063-1.396.168-1.158.535-2.164 1.172-3.215.232-.383.26-.45.26-.632 0-.23-.079-.367-.293-.513a.615.615 0 00-.615-.011zm4.622.25c-.731.305-1.549.706-1.695.83a1.323 1.323 0 00-.266.358c-.14.287-.14.583.003 1.277.712 3.46 3.573 6.51 7.041 7.505.59.17 1.208.274 1.497.253.284-.02.562-.159.75-.372.096-.109.281-.463.545-1.044.436-.958.476-1.122.363-1.51-.11-.38-.243-.498-1.205-1.073-.965-.577-1.193-.672-1.515-.629-.305.04-.494.143-.803.434l-.281.266-.203-.051c-.907-.23-2.074-1.396-2.317-2.317l-.051-.195.285-.305c.196-.21.306-.364.35-.492a1.51 1.51 0 00.025-.755c-.06-.213-1.022-1.805-1.197-1.982a1.205 1.205 0 00-.81-.329c-.14 0-.3.041-.516.131z" fill="#fff"/></svg>