<svg width="40" height="40" fill="none" xmlns="http://www.w3.org/2000/svg"><path fill-rule="evenodd" clip-rule="evenodd" d="M20 0H0v40h40V0H20zm0 0c11.046 0 20 8.954 20 20s-8.954 20-20 20S0 31.046 0 20 8.954 0 20 0z" fill="#C66753"/><path fill-rule="evenodd" clip-rule="evenodd" d="M18.101.049C11.843.699 6.358 4.105 3.026 9.41c-4.725 7.522-3.843 17.456 2.13 24 3.305 3.62 7.44 5.786 12.397 6.492.925.132 4.001.13 4.967-.003 4.528-.622 8.583-2.63 11.667-5.777 1.012-1.033 1.228-1.28 1.9-2.175 2-2.669 3.31-5.921 3.815-9.476.13-.922.13-4.011 0-4.932-.337-2.37-.95-4.39-1.934-6.37-1.042-2.098-2.111-3.593-3.776-5.281C31.105 2.757 27.24.812 22.794.153c-.96-.142-3.737-.204-4.693-.104zm6.636 8.527c2.248.146 3.563.639 4.766 1.787 1.221 1.166 1.785 2.598 1.935 4.92.1 1.529.1 7.874 0 9.428-.15 2.343-.725 3.792-1.978 4.978-1.166 1.103-2.514 1.601-4.724 1.744-1.5.098-7.937.098-9.438 0-2.249-.145-3.564-.638-4.767-1.786-1.221-1.166-1.785-2.599-1.935-4.92-.099-1.518-.098-8.045 0-9.49.157-2.292.723-3.717 1.935-4.874 1.154-1.102 2.541-1.645 4.548-1.78 1.322-.09 8.299-.095 9.657-.007zm-7.575 2.044c-2.35.043-2.73.067-3.258.21-1.664.451-2.609 1.397-3.054 3.058-.142.528-.167.92-.21 3.357a187.31 187.31 0 000 5.52c.043 2.436.068 2.828.21 3.357.445 1.661 1.393 2.61 3.054 3.056.528.142.92.166 3.355.21 1.517.027 3.999.027 5.516 0 2.455-.044 2.824-.067 3.369-.213 1.62-.435 2.6-1.416 3.038-3.04.147-.546.17-.905.213-3.37a190.83 190.83 0 000-5.52c-.043-2.445-.067-2.827-.21-3.357-.448-1.665-1.4-2.616-3.055-3.054-.61-.162-.771-.17-5.174-.243-.624-.01-2.331.003-3.794.03zm9.48 1.953c.3.114.647.451.777.756.378.884-.296 1.9-1.261 1.9-.737 0-1.369-.628-1.369-1.361 0-.948.972-1.628 1.853-1.295zm-4.727 1.85c.946.332 1.471.663 2.214 1.394.72.708 1.17 1.415 1.496 2.348.203.582.218.713.218 1.84 0 1.127-.015 1.258-.218 1.84a5.93 5.93 0 01-1.455 2.315 5.926 5.926 0 01-2.315 1.456c-.581.203-.712.219-1.838.219-1.126 0-1.257-.016-1.838-.219-.933-.326-1.64-.777-2.347-1.497-.727-.74-1.057-1.262-1.398-2.215-.235-.659-.245-.734-.242-1.9.002-1.105.02-1.268.213-1.839.407-1.213 1.277-2.355 2.324-3.05 1.146-.764 1.965-.99 3.445-.957.942.022 1.13.05 1.741.265zm-2.82 1.868c-2.057.554-3.31 2.619-2.793 4.604.374 1.437 1.391 2.454 2.831 2.829 2.689.7 5.301-1.913 4.6-4.604-.544-2.094-2.635-3.369-4.639-2.829z" fill="#C66753"/></svg>