<svg width="20" height="20" fill="none" xmlns="http://www.w3.org/2000/svg"><path fill-rule="evenodd" clip-rule="evenodd" d="M4.22.042C3.552.297 2.31 1.52 1.155 3.056.698 3.666.34 4.22.151 4.608L0 4.919l.048.418C.431 8.65 3.191 12.98 6.892 16.073c2.61 2.18 5.429 3.59 7.75 3.877.382.047.405.046.646-.053.985-.403 3.31-2.271 4.19-3.367.558-.696.64-1.03.381-1.556-.176-.357-.362-.521-1.352-1.188-2.016-1.358-3.458-2.093-4.101-2.092-.48 0-.753.199-1.535 1.12-.274.323-.524.588-.553.588-.095 0-.767-.274-1.172-.477a9.103 9.103 0 01-3.513-3.107c-.328-.493-.798-1.414-.948-1.859l-.1-.295.163-.146c.09-.08.36-.314.602-.52.744-.636.92-.883.95-1.338a1.33 1.33 0 00-.077-.555c-.128-.398-.58-1.311-.997-2.017C6.75 2.286 5.724.747 5.493.489 5.153.111 4.57-.093 4.219.042z" fill="#C66753"/></svg>