<svg width="40" height="40" fill="none" xmlns="http://www.w3.org/2000/svg"><path fill-rule="evenodd" clip-rule="evenodd" d="M20 0H0v40h40V0H20zm0 0c11.046 0 20 8.954 20 20s-8.954 20-20 20S0 31.046 0 20 8.954 0 20 0z" fill="#C66753"/><path fill-rule="evenodd" clip-rule="evenodd" d="M18.133.046c-6.798.656-12.87 4.772-15.946 10.81C1.1 12.99.457 15.05.104 17.525c-.155 1.098-.133 3.938.042 5.162.31 2.174.951 4.234 1.934 6.213a19.822 19.822 0 009.003 8.994 20.02 20.02 0 0019.876-1.149c2.328-1.518 4.533-3.77 6.04-6.164.572-.91 1.436-2.678 1.828-3.743.395-1.073.857-2.936 1.028-4.151.173-1.23.196-4.078.042-5.162-.462-3.249-1.493-6.014-3.204-8.597-.728-1.098-1.455-1.984-2.468-3.008C31.103 2.766 27.22.81 22.78.154c-.957-.142-3.648-.204-4.646-.108zm3.389 13.647c.17.086.38.256.47.377.155.213.161.322.165 2.816.004 2.743.047 3.15.36 3.368.211.148.345.096.757-.295.922-.875 2.126-2.773 2.846-4.485.223-.532.49-1.052.593-1.154.261-.261.644-.293 3.113-.262 1.836.023 2.145.045 2.365.165.348.189.393.44.19 1.066-.242.749-.694 1.472-2.197 3.515-1.726 2.345-1.877 2.63-1.642 3.087.049.094.678.77 1.397 1.501 1.253 1.272 2.111 2.31 2.435 2.945.288.564.134 1.083-.406 1.361-.314.163-1.66.217-3.363.136-1.896-.09-1.998-.141-3.563-1.786-1.23-1.294-1.515-1.522-1.897-1.522-.474 0-.618.295-.876 1.8-.143.83-.175.918-.418 1.144-.234.218-.333.251-.9.301-2.069.183-4.305-.427-6-1.638-1.73-1.236-3.574-3.624-5.4-6.993-.817-1.507-2.075-4.222-2.075-4.477a.8.8 0 01.162-.412l.163-.206h1.955c1.154 0 2.095.035 2.296.085.488.123.762.457 1.18 1.44.908 2.138 2.577 4.62 3.214 4.78.417.105.592-.198.748-1.295.095-.662.033-3.084-.09-3.53-.101-.364-.434-.673-.907-.842-.232-.083-.394-.191-.41-.274-.059-.305.385-.693.965-.842.13-.033 1.186-.053 2.348-.045 1.942.013 2.139.027 2.422.17z" fill="#C66753"/></svg>