<svg width="28" height="28" fill="none" xmlns="http://www.w3.org/2000/svg"><path fill-rule="evenodd" clip-rule="evenodd" d="M12.986.01C10.87.214 9.273.671 7.542 1.566a13.938 13.938 0 00-6.097 6.212C.938 8.805.7 9.434.435 10.44.1 11.71.002 12.48 0 13.883c-.001.699.027 1.457.067 1.752.299 2.243 1.003 4.176 2.181 5.986l.393.604-.872 2.571c-.48 1.415-.865 2.58-.856 2.589.01.009 1.21-.365 2.667-.83 1.457-.466 2.67-.846 2.693-.846.024 0 .25.127.5.283.251.156.778.437 1.17.624a14.015 14.015 0 0011.226.402c4.112-1.629 7.27-5.192 8.398-9.473.345-1.312.433-2.03.433-3.552 0-1.522-.088-2.241-.433-3.553C26.244 5.417 22.213 1.513 17.126.328c-.855-.199-1.744-.3-2.824-.32a22.815 22.815 0 00-1.316.001zM9.643 6.504c.09.048.218.18.283.297.163.292 1.496 3.498 1.535 3.692.05.248-.194.67-.739 1.281-.568.639-.69.844-.64 1.074.092.418 1.36 2.097 2.141 2.835 1.212 1.146 3.045 2.234 3.861 2.293.42.03.573-.088 1.215-.942.291-.387.602-.776.69-.864.212-.211.526-.256.878-.125.451.167 3.212 1.51 3.406 1.656l.185.14-.03.58c-.079 1.489-.602 2.262-1.985 2.935-1.316.639-2.345.621-4.361-.074-2.704-.934-4.14-1.825-6.085-3.78a20.556 20.556 0 01-2.456-2.936c-1.303-1.864-1.803-3.303-1.654-4.764.12-1.17.529-2.036 1.357-2.862.4-.4.924-.565 1.713-.538.334.01.58.048.686.103z" fill="#C66753"/></svg>