<svg width="24" height="24" viewBox="0 0 24 24" fill="none" xmlns="http://www.w3.org/2000/svg">
<path fill-rule="evenodd" clip-rule="evenodd" d="M11.7568 2.02229C10.7755 2.10794 9.2735 2.4784 8.89075 2.72917C8.52494 2.96886 8.50693 3.58809 8.85778 3.86401C9.11807 4.06877 9.25344 4.06644 9.95389 3.84502C11.7169 3.28772 13.3919 3.28795 15.077 3.84565C18.0554 4.83149 20.1873 7.49728 20.5332 10.6684C20.6567 11.8002 20.5291 12.9009 20.1337 14.1162C19.9374 14.7195 19.9331 14.8148 20.0902 15.0731C20.342 15.4872 21.0122 15.5087 21.2727 15.1111C21.3121 15.0511 21.405 14.8239 21.4791 14.6064C22.1702 12.5796 22.1786 10.4768 21.5037 8.45747C21.0337 7.05131 20.2872 5.85026 19.2194 4.78248C17.6415 3.20458 15.6313 2.25479 13.4133 2.03914C12.9568 1.99477 12.1648 1.98669 11.7568 2.02229ZM11.5111 4.49847C11.1604 4.53819 10.6223 4.63925 10.3402 4.71837C10.0034 4.81282 9.76767 5.1965 9.83286 5.54409C9.85158 5.64381 9.93052 5.78106 10.0314 5.88922C10.2471 6.12042 10.4607 6.14651 11.0867 6.01807C12.9149 5.64291 14.7941 6.14325 16.1486 7.36579C17.1397 8.26031 17.7522 9.34815 18.0185 10.687C18.1212 11.2034 18.1206 12.2732 18.0173 12.7812C17.9235 13.2423 17.9256 13.4171 18.0273 13.6084C18.1523 13.8437 18.3599 13.9651 18.6371 13.9651C19.0951 13.9651 19.3138 13.686 19.4376 12.9437C19.6407 11.7251 19.5501 10.604 19.1515 9.40306C18.4411 7.26263 16.7392 5.56071 14.5985 4.85026C13.5456 4.50079 12.5212 4.38405 11.5111 4.49847ZM4.83762 5.39205C4.39683 5.49557 4.10161 5.71645 3.12711 6.67187C2.53188 7.25548 2.14726 7.6683 2.08837 7.78674C1.97641 8.01209 1.97329 8.15778 2.0651 8.879C2.67351 13.6602 6.05274 18.249 10.6622 20.5535C12.2699 21.3572 14.0128 21.8626 15.6024 21.9858C15.9411 22.0121 16.0332 22.0046 16.1609 21.94C16.3741 21.8324 18.0903 20.1206 18.3042 19.8022C18.5285 19.4684 18.6594 19.0466 18.6594 18.6576C18.6594 18.2183 18.367 16.2566 18.2581 15.9657C18.0716 15.4672 17.6146 14.9819 17.1404 14.779C17.0298 14.7317 16.334 14.5393 15.594 14.3514C14.1483 13.9843 13.8352 13.9449 13.3652 14.0706C12.9059 14.1935 12.6746 14.3556 11.9773 15.0435L11.3042 15.7075L10.8158 15.3166C10.1854 14.8121 9.22641 13.8566 8.70231 13.211L8.28958 12.7025L8.95598 12.027C9.64638 11.3272 9.80833 11.0963 9.93128 10.6367C10.0572 10.166 10.0176 9.85113 9.65102 8.40654C9.46347 7.66732 9.26189 6.95892 9.20309 6.8323C8.97439 6.33987 8.53991 5.93559 8.03193 5.74259C7.73496 5.62973 5.76073 5.34085 5.32839 5.34693C5.15362 5.34943 4.93273 5.36971 4.83762 5.39205ZM6.5105 6.90973C7.49491 7.05185 7.61782 7.08714 7.79702 7.27898C7.91443 7.40466 7.9646 7.56764 8.31804 8.97099C8.56975 9.97023 8.59651 10.1615 8.5148 10.3763C8.48862 10.4452 8.06816 10.9039 7.58047 11.3957C6.6343 12.3497 6.59061 12.4149 6.65954 12.77C6.69082 12.931 7.05994 13.4642 7.60169 14.131C8.10703 14.7529 9.33989 15.9709 9.96975 16.4704C11.0118 17.2969 11.1731 17.3879 11.5066 17.3379C11.6975 17.3093 11.7633 17.2544 12.6064 16.4205C13.0997 15.9327 13.559 15.5124 13.627 15.4865C13.6951 15.4606 13.8213 15.4395 13.9075 15.4395C14.0538 15.4395 16.2471 15.9718 16.5081 16.0707C16.6551 16.1264 16.8174 16.2746 16.8953 16.4244C16.9599 16.5483 17.2298 18.3293 17.2298 18.6311C17.2298 18.9026 17.0709 19.1162 16.3022 19.8786L15.6327 20.5425L15.2361 20.4916C9.64553 19.7742 4.52291 14.8028 3.55789 9.15814C3.41282 8.30955 3.3614 8.43388 4.18989 7.62881C4.58626 7.24365 4.9632 6.89342 5.02758 6.85062C5.19061 6.74215 5.40993 6.75086 6.5105 6.90973ZM12.3666 7.2235C11.752 7.34922 11.6152 8.20393 12.1591 8.52065C12.2406 8.56809 12.4726 8.61697 12.7522 8.64556C13.3087 8.70248 13.7518 8.86274 14.1619 9.15533C14.8709 9.66125 15.266 10.3632 15.3598 11.2835C15.3855 11.5357 15.435 11.7635 15.4812 11.8428C15.748 12.3008 16.4366 12.2938 16.7072 11.8304C16.7738 11.7164 16.7915 11.6047 16.7874 11.3239C16.7567 9.22654 15.0169 7.38652 12.9128 7.22627C12.6885 7.2092 12.4428 7.20795 12.3666 7.2235Z" fill="white"/>
</svg>
