<svg width="24" height="24" viewBox="0 0 24 24" fill="none" xmlns="http://www.w3.org/2000/svg">
<path fill-rule="evenodd" clip-rule="evenodd" d="M12.0442 2.05223C11.5473 2.17241 11.069 2.55099 10.8289 3.0143L10.7134 3.2371L9.92309 3.24903C9.19633 3.25998 9.12411 3.26745 9.02486 3.34163C8.79084 3.51654 8.75669 3.6039 8.74245 4.06384L8.72926 4.4896L7.33409 4.50122L5.93891 4.51284L5.72038 4.61534C5.44258 4.74561 5.23277 4.95542 5.1025 5.23321L5 5.45175V13.2564V21.0611L5.1025 21.2796C5.23277 21.5574 5.44258 21.7672 5.72038 21.8975L5.93891 22H12.4917H19.0445L19.263 21.8975C19.5408 21.7672 19.7506 21.5574 19.8809 21.2796L19.9834 21.0611V13.2564V5.45175L19.8809 5.23321C19.7506 4.95542 19.5408 4.74561 19.263 4.61534L19.0445 4.51284L17.6493 4.50122L16.2541 4.4896L16.241 4.06384C16.2267 3.6039 16.1926 3.51654 15.9585 3.34163C15.8593 3.26745 15.7871 3.25998 15.0603 3.24903L14.27 3.2371L14.1545 3.0143C13.7581 2.24952 12.8812 1.84978 12.0442 2.05223ZM12.8345 3.34593C13.0096 3.47664 13.081 3.6082 13.1176 3.86734C13.1546 4.12875 13.2255 4.25781 13.4064 4.39305C13.5049 4.46671 13.5786 4.47477 14.2549 4.48588L14.9955 4.49801V5.1216V5.74515H12.4917H9.98795V5.11922V4.49328H10.6738C11.1646 4.49328 11.396 4.4781 11.4874 4.43992C11.6598 4.36789 11.8185 4.17045 11.8465 3.99335C11.8591 3.91327 11.8781 3.79109 11.8887 3.72177C11.9123 3.56759 12.0749 3.3671 12.2355 3.29425C12.3938 3.22243 12.705 3.24926 12.8345 3.34593ZM8.74241 6.17275C8.75669 6.63481 8.79068 6.72189 9.02498 6.8968C9.13213 6.97681 9.1605 6.97747 12.4917 6.97747C15.8229 6.97747 15.8513 6.97681 15.9584 6.8968C16.1927 6.72189 16.2267 6.63481 16.241 6.17275L16.2543 5.74515H17.5027H18.7511V13.2564V20.7677H12.4917H6.23232V13.2564V5.74515H7.48075H8.72915L8.74241 6.17275ZM11.631 9.54186C11.5772 9.56405 11.0451 10.0695 10.4485 10.6651L9.36377 11.748L8.88364 11.2734C8.3679 10.7637 8.27526 10.713 7.96535 10.7711C7.77279 10.8072 7.53877 11.0413 7.50266 11.2338C7.44026 11.5663 7.47093 11.6129 8.29932 12.4422C8.95433 13.0979 9.09039 13.2163 9.21531 13.2387C9.57045 13.3026 9.54306 13.3237 11.0344 11.8363C12.0132 10.86 12.426 10.4224 12.457 10.3284C12.5442 10.0644 12.4478 9.78391 12.2086 9.60532C12.0902 9.51698 11.7752 9.48236 11.631 9.54186ZM14.1133 10.807C13.8541 10.9215 13.7053 11.2208 13.7607 11.5163C13.795 11.699 13.9902 11.9152 14.1678 11.9673C14.2614 11.9947 14.7934 12.005 15.7066 11.9971C17.0454 11.9855 17.1068 11.9817 17.2103 11.9043C17.4156 11.751 17.4797 11.626 17.4797 11.3786C17.4797 11.1312 17.4156 11.0062 17.2103 10.8529C17.1064 10.7753 17.0483 10.7719 15.6675 10.7633C14.5341 10.7561 14.2075 10.7653 14.1133 10.807ZM11.631 14.5494C11.5772 14.5716 11.0451 15.077 10.4485 15.6726L9.36377 16.7555L8.88364 16.281C8.36974 15.773 8.27472 15.7206 7.97102 15.7775C7.78621 15.8122 7.53626 16.0622 7.50156 16.247C7.4401 16.5748 7.4716 16.6223 8.2987 17.4494C8.95304 18.1037 9.09063 18.2233 9.21531 18.246C9.5701 18.3104 9.54295 18.3314 11.0344 16.8438C12.0132 15.8675 12.426 15.43 12.457 15.3359C12.5442 15.0719 12.4478 14.7914 12.2086 14.6128C12.0902 14.5245 11.7752 14.4899 11.631 14.5494ZM14.1133 15.8145C13.8541 15.929 13.7053 16.2283 13.7607 16.5239C13.795 16.7065 13.9902 16.9227 14.1678 16.9748C14.2614 17.0022 14.7934 17.0125 15.7066 17.0046C17.0454 16.993 17.1068 16.9892 17.2103 16.9118C17.4156 16.7585 17.4797 16.6335 17.4797 16.3861C17.4797 16.1388 17.4156 16.0137 17.2103 15.8604C17.1064 15.7828 17.0483 15.7794 15.6675 15.7708C14.5341 15.7637 14.2075 15.7728 14.1133 15.8145Z" fill="white"/>
</svg>
