<svg width="24" height="24" viewBox="0 0 24 24" fill="none" xmlns="http://www.w3.org/2000/svg">
<path fill-rule="evenodd" clip-rule="evenodd" d="M2.30316 2.08055C2.21391 2.1277 2.12656 2.21754 2.07855 2.31164C2.00453 2.45672 2 2.54035 2 3.75781C2 4.97578 2.00453 5.05883 2.07863 5.20414C2.12926 5.3034 2.21223 5.38637 2.31148 5.43699C2.4568 5.51109 2.53984 5.51562 3.75781 5.51562C4.97578 5.51562 5.05883 5.51109 5.20414 5.43699C5.43734 5.31801 5.51562 5.13199 5.51562 4.69688V4.34375L6.7168 4.34578C7.85883 4.34773 7.9132 4.35109 7.82145 4.41414C6.19898 5.52875 5.08965 7.1084 4.61809 8.97563C4.55621 9.22059 4.48531 9.59258 4.46051 9.8023C4.4357 10.012 4.40863 10.2188 4.40035 10.2617C4.39074 10.3116 4.29281 10.3874 4.12977 10.4712C3.50445 10.7929 3.12516 11.5521 3.2409 12.2505C3.36898 13.0235 3.94277 13.5993 4.7118 13.7268C5.43668 13.8469 6.22316 13.4323 6.53512 12.7657C6.77824 12.2462 6.77531 11.7023 6.52684 11.21C6.37871 10.9165 6.03145 10.5627 5.77395 10.4428L5.58305 10.3539L5.60863 10.0784C5.7691 8.35187 6.84852 6.55496 8.36719 5.48609C8.75543 5.21281 9.51129 4.8343 9.9791 4.67883C10.2104 4.60195 10.4052 4.53906 10.412 4.53906C10.4188 4.53906 10.4809 4.62629 10.55 4.73289C10.8512 5.19785 11.4389 5.51469 12 5.51469C12.5611 5.51469 13.1488 5.19785 13.45 4.73289C13.5191 4.62629 13.5812 4.53906 13.588 4.53906C13.5948 4.53906 13.7896 4.60195 14.0209 4.67883C14.4887 4.8343 15.2446 5.21281 15.6328 5.48609C17.1515 6.55496 18.2309 8.35187 18.3914 10.0784L18.417 10.3539L18.2261 10.4428C17.9686 10.5627 17.6213 10.9165 17.4732 11.21C16.9381 12.2699 17.5899 13.5305 18.7743 13.7268C19.9136 13.9156 20.9529 12.8629 20.7568 11.7188C20.6654 11.186 20.3229 10.7041 19.8702 10.4712C19.7072 10.3874 19.6093 10.3116 19.5996 10.2617C19.5914 10.2188 19.5643 10.012 19.5395 9.8023C19.4252 8.83602 19.0257 7.71031 18.479 6.81473C17.9427 5.93605 17.0962 5.04891 16.2583 4.48738L16.044 4.34375H17.2642H18.4844V4.69688C18.4844 5.13199 18.5627 5.31801 18.7959 5.43699C18.9412 5.51109 19.0242 5.51562 20.2422 5.51562C21.4602 5.51562 21.5432 5.51109 21.6885 5.43699C21.7878 5.38637 21.8707 5.3034 21.9214 5.20414C21.9955 5.05883 22 4.97578 22 3.75781C22 2.53984 21.9955 2.4568 21.9214 2.31148C21.8707 2.21223 21.7878 2.12926 21.6885 2.07863C21.5432 2.00453 21.4602 2 20.2422 2C19.0242 2 18.9412 2.00453 18.7959 2.07863C18.5627 2.19762 18.4844 2.38363 18.4844 2.81875V3.17188L16.0723 3.17172L13.6602 3.1716L13.5287 2.91742C13.2021 2.2857 12.4361 1.90934 11.7252 2.03121C11.1872 2.12348 10.7059 2.46359 10.4712 2.91742L10.3398 3.1716L7.92773 3.17172L5.51562 3.17188V2.81875C5.51562 2.38363 5.43734 2.19762 5.20414 2.07863C5.05855 2.00437 4.9777 2.00008 3.74961 2.00172C2.53215 2.00336 2.43988 2.00836 2.30316 2.08055ZM4.34375 3.75781V4.34375H3.75781H3.17188V3.75781V3.17188H3.75781H4.34375V3.75781ZM12.2745 3.25051C12.4478 3.33895 12.5859 3.56398 12.5859 3.75781C12.5859 4.05504 12.2972 4.34375 12 4.34375C11.7028 4.34375 11.4141 4.05504 11.4141 3.75781C11.4141 3.56996 11.5523 3.33949 11.7172 3.25242C11.9057 3.15293 12.082 3.15234 12.2745 3.25051ZM20.8281 3.75781V4.34375H20.2422H19.6562V3.75781V3.17188H20.2422H20.8281V3.75781ZM11.7304 6.79742C11.6203 6.85203 11.1919 7.47148 9.22617 10.419C7.92191 12.3746 6.82598 14.0305 6.7907 14.0987C6.66105 14.3494 6.7309 14.573 7.04613 14.9166C7.79887 15.737 8.34609 16.6546 8.67891 17.6543C8.82461 18.0919 8.99219 18.8084 8.99219 18.9936C8.99219 19.0466 8.8948 19.1836 8.74184 19.3457C8.31586 19.7973 8.03496 20.3577 7.94004 20.9453C7.85051 21.4997 7.92719 21.7771 8.20992 21.9214C8.36113 21.9985 8.43305 22 12 22C15.567 22 15.6389 21.9985 15.7901 21.9214C16.0728 21.7771 16.1495 21.4997 16.06 20.9453C15.965 20.3577 15.6841 19.7973 15.2582 19.3457C15.1052 19.1836 15.0078 19.0466 15.0078 18.9936C15.0078 18.8084 15.1754 18.0919 15.3211 17.6543C15.6539 16.6546 16.2011 15.737 16.9539 14.9166C17.2686 14.5736 17.3389 14.3493 17.21 14.1C17.1751 14.0325 16.0793 12.3767 14.7748 10.4203C12.6936 7.29906 12.3853 6.85492 12.2587 6.79492C12.0805 6.71043 11.9042 6.71129 11.7304 6.79742ZM11.4139 10.9746L11.4138 12.6836L11.1596 12.815C10.5352 13.1379 10.1566 13.8969 10.2721 14.5943C10.4002 15.3672 10.974 15.9431 11.743 16.0705C12.8823 16.2593 13.9217 15.2066 13.7255 14.0625C13.6343 13.531 13.2921 13.0486 12.8404 12.815L12.5862 12.6836L12.5861 10.9648L12.586 9.24609L14.2632 11.762L15.9405 14.278L15.7118 14.555C14.9057 15.5312 14.26 16.8504 13.9789 18.095L13.8866 18.5039L13.6952 18.4844C13.59 18.4736 12.8271 18.4648 12 18.4648C11.1729 18.4648 10.41 18.4736 10.3048 18.4844L10.1134 18.5039L10.0211 18.095C9.74004 16.8504 9.09434 15.5312 8.28828 14.555L8.05957 14.2781L9.72707 11.773C10.6442 10.3951 11.3989 9.2673 11.4043 9.26672C11.4096 9.26613 11.414 10.0347 11.4139 10.9746ZM5.2432 11.4927C5.41652 11.5811 5.55469 11.8062 5.55469 12C5.55469 12.1938 5.41652 12.4189 5.2432 12.5073C5.15844 12.5505 5.03492 12.5859 4.96875 12.5859C4.67152 12.5859 4.38281 12.2972 4.38281 12C4.38281 11.8121 4.52105 11.5817 4.68598 11.4946C4.87445 11.3951 5.05074 11.3945 5.2432 11.4927ZM19.3057 11.4927C19.479 11.5811 19.6172 11.8062 19.6172 12C19.6172 12.0662 19.5818 12.1897 19.5386 12.2745C19.4501 12.4478 19.2251 12.5859 19.0312 12.5859C18.8374 12.5859 18.6124 12.4478 18.5239 12.2745C18.4244 12.0793 18.4243 11.9208 18.5239 11.7257C18.6682 11.4427 19.0088 11.3413 19.3057 11.4927ZM12.2745 13.8364C12.4478 13.9249 12.5859 14.1499 12.5859 14.3438C12.5859 14.5376 12.4478 14.7626 12.2745 14.8511C12.1897 14.8943 12.0662 14.9297 12 14.9297C11.8062 14.9297 11.5811 14.7915 11.4927 14.6182C11.3931 14.423 11.3931 14.2645 11.4926 14.0695C11.637 13.7865 11.9776 13.685 12.2745 13.8364ZM13.5814 19.6773C13.9059 19.7618 14.1854 19.9334 14.4315 20.1992C14.6045 20.386 14.8125 20.7185 14.8125 20.8082C14.8125 20.8191 13.5469 20.8281 12 20.8281C10.4531 20.8281 9.1875 20.8191 9.1875 20.8082C9.1875 20.7185 9.39551 20.386 9.56852 20.1992C9.80883 19.9396 10.0931 19.7622 10.4017 19.6792C10.7193 19.5938 13.2551 19.5923 13.5814 19.6773Z" fill="white"/>
</svg>
