<svg width="24" height="24" viewBox="0 0 24 24" fill="none" xmlns="http://www.w3.org/2000/svg">
<path fill-rule="evenodd" clip-rule="evenodd" d="M6.01226 4.06017C5.59954 4.17107 5.25727 4.45437 5.05596 4.85163C4.93347 5.09329 4.93366 5.09227 4.7621 6.69773L4.62203 8.00875L3.89804 8.03168C3.09937 8.057 2.96686 8.08722 2.62616 8.32163C2.38927 8.48467 2.24393 8.66242 2.1048 8.95922L2 9.1828V13.9593V18.7358L2.14785 19.0349C2.31977 19.3828 2.50824 19.5653 2.88053 19.7443L3.13491 19.8666H10.5314C16.3956 19.8666 17.9617 19.8563 18.0913 19.8169C18.4846 19.6975 18.8892 19.3141 19.0507 18.9078C19.1274 18.7148 19.1379 18.6032 19.1521 17.8269L19.168 16.9612L19.6437 16.9659C20.0574 16.97 20.1487 16.9588 20.3443 16.8798C20.7585 16.7126 21.128 16.2862 21.2323 15.8553C21.3023 15.566 22.0257 6.74466 21.9993 6.50206C21.9493 6.04289 21.6159 5.56052 21.2041 5.35189C21.0974 5.2978 20.8977 5.23417 20.7604 5.21046C20.5155 5.16815 6.52715 3.99497 6.32807 4.00002C6.27223 4.00143 6.13013 4.02851 6.01226 4.06017ZM13.4469 5.36731C17.3536 5.69072 20.6203 5.97472 20.7062 5.99836C20.9112 6.05471 21.1804 6.32239 21.2144 6.50374C21.2285 6.57865 21.0704 8.67209 20.8632 11.1559C20.4644 15.937 20.4773 15.8317 20.2689 16.0201C20.0993 16.1735 19.907 16.217 19.5252 16.1884L19.163 16.1612L19.152 12.6916L19.141 9.22193L19.0468 8.98712C18.9165 8.66265 18.5263 8.2724 18.2018 8.14216L17.967 8.04789L11.6956 8.0374L5.4243 8.02691V7.93846C5.4243 7.77124 5.69468 5.34367 5.7218 5.2674C5.7985 5.05172 6.11561 4.7869 6.30483 4.78052C6.32635 4.77982 9.5403 5.04386 13.4469 5.36731ZM17.8487 8.85465C18.0482 8.91006 18.2789 9.14072 18.3343 9.34023C18.358 9.42582 18.3776 9.68521 18.3777 9.91657L18.3779 10.3373H10.5705H2.76313L2.76336 9.89701C2.7636 9.36544 2.79999 9.21872 2.97309 9.05095C3.23349 8.79853 2.72243 8.81458 10.551 8.81293C15.646 8.81187 17.7377 8.82385 17.8487 8.85465ZM18.3689 11.9516L18.3795 12.7636H10.5713H2.76313V11.9417V11.1198L10.5607 11.1297L18.3583 11.1395L18.3689 11.9516ZM18.3777 15.9825C18.3776 17.5617 18.363 18.4706 18.3364 18.5664C18.3139 18.6477 18.2427 18.7743 18.1783 18.8476C17.9341 19.1257 18.5308 19.1066 10.4894 19.0946L3.24656 19.0839L3.10892 18.9896C3.03324 18.9377 2.92886 18.8334 2.87701 18.7577L2.7827 18.6201L2.77209 16.0832L2.76145 13.5463H10.5697H18.3779L18.3777 15.9825ZM12.6911 14.8301L12.586 14.9399V16.3203V17.7006L12.7004 17.815L12.8147 17.9294H14.8358C16.1471 17.9294 16.8832 17.9153 16.9321 17.8891C17.1146 17.7915 17.1256 17.7023 17.1256 16.3249C17.1256 14.9475 17.1146 14.8583 16.9321 14.7607C16.8832 14.7345 16.1442 14.7204 14.8265 14.7204H12.7963L12.6911 14.8301ZM16.3429 16.3249V17.1467H14.8558H13.3687V16.3249V15.5031H14.8558H16.3429V16.3249Z" fill="white" stroke="white" stroke-width="0.25"/>
</svg>
