<svg width="24" height="24" viewBox="0 0 24 24" fill="none" xmlns="http://www.w3.org/2000/svg">
<path fill-rule="evenodd" clip-rule="evenodd" d="M11.6543 1.04613C11.5365 1.06861 11.2775 1.16316 11.0788 1.25629C10.4426 1.55442 9.94076 2.16758 9.76356 2.86342C9.59819 3.51272 9.74882 4.32474 10.1367 4.8745C10.2336 5.0119 10.2515 5.00124 9.76614 5.09566C9.57889 5.13211 9.28239 5.22997 9.10721 5.31313C8.60068 5.55367 8.36637 5.82641 7.59179 7.07692C7.22576 7.66785 6.92629 8.16493 6.92629 8.18148C6.92629 8.19806 7.33045 8.5075 7.82443 8.86911L8.72261 9.52662L8.7814 9.75848C8.85219 10.0376 9.0158 10.348 9.21466 10.5803C9.34041 10.7272 9.37058 10.808 9.42675 11.1491C9.54563 11.8707 9.44966 12.7076 9.16751 13.4095L9.06987 13.6524L7.53493 13.6637L6 13.675L6.01186 14.3084L6.02377 14.9418L6.50726 14.9539L6.99076 14.9661V18.983V23H12.148H17.3053V18.983V14.9661L17.7888 14.9539L18.2723 14.9418L18.2842 14.3084L18.2961 13.675L16.7611 13.6637L15.2262 13.6524L15.1285 13.4095C14.8458 12.706 14.7457 11.829 14.8683 11.128C14.9233 10.8135 14.9578 10.7247 15.081 10.5808C15.2799 10.3484 15.4436 10.0382 15.5151 9.75848L15.5743 9.52662L16.472 8.87001C16.9658 8.50888 17.3698 8.19905 17.3698 8.18148C17.3698 8.1639 17.07 7.66643 16.7036 7.07597C15.9279 5.82598 15.693 5.55255 15.1888 5.31313C15.0137 5.22997 14.7172 5.13211 14.5299 5.09566C14.0446 5.00124 14.0625 5.0119 14.1594 4.8745C14.4392 4.47786 14.5961 3.96502 14.5971 3.44362C14.5984 2.78929 14.3637 2.2259 13.8886 1.74249C13.2976 1.14119 12.4846 0.8878 11.6543 1.04613ZM12.7064 2.43932C13.105 2.65627 13.3088 3.01066 13.308 3.48522C13.3063 4.4504 12.1175 4.97399 11.3872 4.33118C11.0246 4.01203 10.8929 3.50972 11.053 3.05613C11.2882 2.38938 12.0752 2.09581 12.7064 2.43932ZM13.2982 6.17577C14.4751 6.383 14.5867 6.41206 14.7956 6.56549C14.9057 6.64633 15.6048 7.69153 15.6402 7.82812C15.646 7.85034 15.3509 8.08864 14.9845 8.35772L14.3184 8.84689L14.2948 9.17528C14.2526 9.76265 13.952 10.0434 13.3124 10.0927L12.9646 10.1195V10.7492V11.3787L13.244 11.3609L13.5233 11.3431L13.5236 11.7672C13.5239 12.2482 13.608 12.8611 13.7367 13.3188C13.7848 13.4899 13.8241 13.6398 13.8241 13.6519C13.8241 13.664 13.0699 13.6739 12.148 13.6739C11.2262 13.6739 10.4719 13.664 10.4719 13.6519C10.4719 13.6398 10.5113 13.4899 10.5594 13.3188C10.688 12.8611 10.7722 12.2482 10.7725 11.7672L10.7728 11.3431L11.0521 11.3609L11.3315 11.3787V10.7492V10.1195L10.9837 10.0927C10.5634 10.0603 10.3385 9.95042 10.1536 9.68706C10.0462 9.5341 10.0209 9.44883 10.0013 9.17318L9.97768 8.84264L9.31153 8.35506C8.94515 8.08688 8.65011 7.84952 8.65587 7.8276C8.69201 7.68986 9.38446 6.65634 9.49693 6.57228C9.70688 6.41541 9.81647 6.3861 10.9017 6.1967C11.4572 6.09974 11.9407 6.01379 11.9761 6.00571C12.1177 5.97334 12.2326 5.98813 13.2982 6.17577ZM16.016 18.337V21.7107H12.148H8.28007V18.337V14.9632H12.148H16.016V18.337ZM9.56939 18.294V20.3354H12.148H14.7267V18.294V16.2526H12.148H9.56939V18.294ZM13.4373 18.294V19.0461H12.148H10.8587V18.294V17.5419H12.148H13.4373V18.294Z" fill="white"/>
</svg>
