<svg width="24" height="24" viewBox="0 0 24 24" fill="none" xmlns="http://www.w3.org/2000/svg">
<path fill-rule="evenodd" clip-rule="evenodd" d="M7.02679 3.07923C6.93751 3.12639 6.85015 3.21625 6.80213 3.31037C6.72497 3.46161 6.72356 3.5344 6.72356 7.34714V11.2299L6.40393 11.3154C5.85863 11.4614 5.32872 11.7582 4.89258 12.162C4.70164 12.3387 4.63761 12.3755 4.52063 12.3755H4.37935V12.0223C4.37935 11.5871 4.30106 11.4011 4.06781 11.2821C3.92966 11.2116 3.83815 11.2034 3.18771 11.2034C2.34403 11.2034 2.2153 11.2394 2.07472 11.5149C1.97509 11.7102 1.97509 11.8687 2.07472 12.064C2.19545 12.3006 2.37818 12.3755 2.83452 12.3755H3.20725V15.8918V19.4081H2.83452C2.37818 19.4081 2.19545 19.4831 2.07472 19.7197C1.97509 19.915 1.97509 20.0734 2.07472 20.2687C2.2153 20.5442 2.34403 20.5802 3.18771 20.5802C3.83815 20.5802 3.92966 20.5721 4.06781 20.5016C4.30106 20.3826 4.37935 20.1965 4.37935 19.7613V19.4081H4.62843C4.84194 19.4081 5.13876 19.4917 6.70891 19.994L8.54033 20.5797L12.7208 20.579C15.3983 20.5786 16.963 20.5641 17.0728 20.5388C17.7148 20.3908 18.2496 19.8452 18.4055 19.1791C18.4523 18.9792 18.4418 18.5938 18.3827 18.3435L18.3574 18.236H19.9458C21.4607 18.236 21.5414 18.2324 21.6885 18.1574C21.7877 18.1068 21.8707 18.0238 21.9214 17.9245C21.9993 17.7716 22 17.7091 22 10.6174C22 3.52557 21.9993 3.46309 21.9214 3.31021C21.8707 3.21094 21.7877 3.12795 21.6885 3.07732C21.5355 2.99933 21.4749 2.99867 14.3536 3.00039C7.28145 3.00211 7.17064 3.00328 7.02679 3.07923ZM11.998 5.9891C11.998 7.73436 12.0012 7.8136 12.0767 7.9616C12.1273 8.06087 12.2103 8.14386 12.3096 8.19449C12.4578 8.27009 12.5367 8.27314 14.3422 8.27314C16.1478 8.27314 16.2267 8.27009 16.3749 8.19449C16.4742 8.14386 16.5572 8.06087 16.6078 7.9616C16.6833 7.8136 16.6865 7.73436 16.6865 5.9891V4.17077H18.7572H20.8279V10.6174V17.0639L16.0125 17.0635C10.838 17.063 11.0232 17.0698 10.6081 16.8632C10.2709 16.6955 9.87969 16.2718 9.79214 15.9797L9.76576 15.8918H11.2511C12.1946 15.8918 12.8121 15.8759 12.9436 15.8482C13.6422 15.7011 14.1876 15.1284 14.3103 14.4128C14.4657 13.5062 13.8545 12.6148 12.9436 12.4198C12.8112 12.3915 12.2351 12.3755 11.3469 12.3755H9.95728L9.71767 12.1536C9.27512 11.7437 8.72153 11.4404 8.15736 11.2987L7.89567 11.233V7.70186V4.17077H9.94685H11.998V5.9891ZM15.5144 5.6359V7.10104H14.3422H13.1701V5.6359V4.17077H14.3422H15.5144V5.6359ZM7.87051 12.4373C8.32872 12.5552 8.59151 12.7109 8.96248 13.0843C9.15166 13.2748 9.35736 13.4569 9.4196 13.4891C9.51462 13.5382 9.78659 13.5476 11.1186 13.5476C12.6309 13.5476 12.7116 13.5512 12.8586 13.6263C13.032 13.7147 13.1701 13.9398 13.1701 14.1337C13.1701 14.3275 13.032 14.5526 12.8586 14.6411C12.7104 14.7167 12.6315 14.7197 10.8259 14.7197C9.02038 14.7197 8.94146 14.7228 8.79327 14.7984C8.49383 14.9511 8.41878 15.2778 8.54392 15.8836C8.73869 16.8265 9.40792 17.6381 10.3006 18.0138C10.8184 18.2317 10.8891 18.236 13.971 18.236C16.736 18.236 16.8106 18.238 16.961 18.3147C17.1343 18.4031 17.2725 18.6282 17.2725 18.8221C17.2725 19.016 17.1343 19.241 16.961 19.3295C16.8094 19.4068 16.7387 19.4081 12.7664 19.4081H8.72591L6.8945 18.8223C5.11137 18.252 5.05406 18.2365 4.72122 18.2363L4.37935 18.236V15.8918V13.5476H4.73294C4.97052 13.5476 5.1236 13.5284 5.19963 13.4891C5.26187 13.4569 5.46758 13.2751 5.65675 13.0849C6.02202 12.7179 6.25242 12.5774 6.6986 12.4497C7.00616 12.3617 7.55416 12.3559 7.87051 12.4373Z" fill="white"/>
</svg>
