<svg width="24" height="24" fill="none" xmlns="http://www.w3.org/2000/svg"><path fill-rule="evenodd" clip-rule="evenodd" d="M11.757 2.022c-.982.086-2.483.456-2.866.707-.366.24-.384.86-.033 1.135.26.205.395.202 1.096-.019 1.763-.557 3.438-.557 5.123 0 2.978.986 5.11 3.652 5.456 6.823.124 1.132-.004 2.233-.4 3.448-.196.604-.2.699-.043.957.252.414.922.436 1.183.038.04-.06.132-.287.206-.505.691-2.026.7-4.13.025-6.149a9.222 9.222 0 00-2.285-3.675 9.415 9.415 0 00-5.806-2.743 11.52 11.52 0 00-1.656-.017zm-.246 2.476c-.35.04-.889.141-1.17.22a.749.749 0 00-.508.826c.019.1.098.237.198.345.216.231.43.258 1.056.13 1.828-.376 3.707.124 5.062 1.347.99.894 1.603 1.982 1.87 3.321.102.516.102 1.586-.002 2.094-.093.461-.091.636.01.827a.647.647 0 00.61.357c.458 0 .677-.279.8-1.021.204-1.219.113-2.34-.286-3.54a7.212 7.212 0 00-4.553-4.554c-1.052-.35-2.077-.466-3.087-.352zm-6.673.894c-.441.104-.736.324-1.71 1.28-.596.583-.98.996-1.04 1.115-.112.225-.115.37-.023 1.092.609 4.781 3.988 9.37 8.597 11.675 1.608.803 3.35 1.309 4.94 1.432.34.026.431.019.559-.046.213-.108 1.93-1.82 2.143-2.138a2.12 2.12 0 00.355-1.144c0-.44-.292-2.401-.4-2.692-.187-.499-.644-.984-1.119-1.187-.11-.047-.806-.24-1.546-.428-1.446-.367-1.759-.406-2.229-.28-.46.123-.69.285-1.388.973l-.673.663-.488-.39c-.63-.505-1.59-1.46-2.114-2.106l-.412-.508.666-.676c.69-.7.852-.93.975-1.39.126-.471.087-.786-.28-2.23-.188-.74-.39-1.448-.448-1.575a2.16 2.16 0 00-1.171-1.09c-.297-.112-2.271-.401-2.704-.395a2.957 2.957 0 00-.49.045zM6.51 6.91c.984.142 1.107.177 1.286.369.117.126.168.289.521 1.692.252 1 .279 1.19.197 1.405-.026.07-.447.528-.935 1.02-.946.954-.99 1.019-.92 1.374.03.161.4.694.942 1.361.505.622 1.738 1.84 2.368 2.34 1.042.826 1.203.917 1.537.867.19-.029.256-.084 1.1-.918.493-.487.952-.908 1.02-.934a.95.95 0 01.28-.046c.147 0 2.34.532 2.601.63.147.056.31.205.387.354.065.124.335 1.905.335 2.207 0 .272-.16.485-.928 1.248l-.67.663-.396-.05c-5.59-.718-10.713-5.69-11.678-11.334-.145-.848-.197-.724.632-1.53.396-.384.773-.735.838-.777.163-.109.382-.1 1.483.059zm5.856.313c-.615.126-.752.98-.208 1.298.082.047.314.096.593.125.557.056 1 .217 1.41.51.709.505 1.104 1.207 1.198 2.127.026.253.075.48.121.56.267.458.956.45 1.226-.013.067-.114.084-.225.08-.506-.03-2.097-1.77-3.937-3.874-4.098a2.998 2.998 0 00-.546-.003z" fill="#fff"/></svg>