<svg width="24" height="24" fill="none" xmlns="http://www.w3.org/2000/svg"><path fill-rule="evenodd" clip-rule="evenodd" d="M12.044 2.052a1.95 1.95 0 00-1.215.962l-.116.223-.79.012c-.727.011-.799.018-.898.093-.234.175-.268.262-.283.722l-.013.426-1.395.011-1.395.012-.219.102c-.277.13-.487.34-.617.618L5 5.452V21.06l.103.219c.13.277.34.487.617.617l.22.104h13.105l.219-.102c.278-.13.488-.34.618-.618l.102-.219V5.452l-.102-.219a1.26 1.26 0 00-.618-.618l-.219-.102L17.65 4.5l-1.395-.011-.013-.426c-.014-.46-.048-.547-.282-.722-.1-.075-.172-.082-.899-.093l-.79-.012-.115-.223a1.886 1.886 0 00-2.11-.962zm.79 1.294c.176.13.247.262.284.521.037.262.107.39.288.526.099.074.173.082.849.093l.74.012v1.247H9.989V4.493h.686c.49 0 .722-.015.813-.053a.647.647 0 00.36-.447l.042-.271c.023-.154.186-.355.347-.428.158-.072.469-.045.598.052zM8.742 6.173c.015.462.049.549.283.724.107.08.136.08 3.467.08 3.33 0 3.36 0 3.466-.08.235-.175.269-.262.283-.724l.013-.428h2.497v15.023H6.232V5.746H8.73l.013.427zm2.889 3.369c-.054.022-.586.527-1.183 1.123l-1.084 1.083-.48-.475c-.516-.51-.609-.56-.919-.502-.192.036-.426.27-.462.463-.063.332-.032.379.796 1.208.655.656.791.774.916.797.355.064.328.085 1.82-1.403.978-.976 1.391-1.414 1.422-1.508.087-.264-.01-.544-.248-.723-.119-.088-.434-.123-.578-.063zm2.482 1.265a.645.645 0 00-.352.71c.034.182.23.398.407.45.093.028.625.038 1.539.03 1.338-.011 1.4-.015 1.503-.093.206-.153.27-.278.27-.525 0-.248-.064-.373-.27-.526-.104-.078-.162-.081-1.543-.09-1.133-.007-1.46.002-1.554.044zm-2.482 3.742c-.054.023-.586.528-1.183 1.124l-1.084 1.083-.48-.475c-.514-.508-.61-.56-.913-.503-.185.034-.435.284-.47.469-.06.328-.03.375.798 1.202.654.655.792.774.916.797.355.064.328.085 1.82-1.402.978-.977 1.391-1.414 1.422-1.508.087-.264-.01-.545-.248-.723-.119-.088-.434-.123-.578-.064zm2.482 1.266a.645.645 0 00-.352.709.67.67 0 00.407.45c.093.028.625.038 1.539.03 1.338-.011 1.4-.015 1.503-.092.206-.153.27-.278.27-.526 0-.247-.064-.372-.27-.526-.104-.077-.162-.08-1.543-.09-1.133-.006-1.46.003-1.554.045z" fill="#fff"/></svg>