<svg width="24" height="24" fill="none" xmlns="http://www.w3.org/2000/svg"><path fill-rule="evenodd" clip-rule="evenodd" d="M2.303 2.08a.567.567 0 00-.224.232C2.005 2.457 2 2.54 2 3.758s.005 1.3.079 1.446c.05.1.133.182.232.233.146.074.229.079 1.447.079s1.3-.005 1.446-.079c.233-.119.312-.305.312-.74v-.353l1.2.002c1.143.002 1.197.005 1.105.068C6.2 5.53 5.09 7.108 4.618 8.976a7.91 7.91 0 00-.157.826c-.025.21-.052.417-.06.46-.01.05-.108.125-.271.21-.626.32-1.005 1.08-.89 1.779a1.762 1.762 0 001.472 1.476c.725.12 1.511-.295 1.823-.961.243-.52.24-1.064-.008-1.556-.148-.294-.496-.647-.753-.767l-.19-.09.025-.275c.16-1.726 1.24-3.523 2.758-4.592A7.71 7.71 0 019.98 4.68c.231-.077.426-.14.433-.14.007 0 .069.087.138.194.301.465.889.782 1.45.782.561 0 1.149-.317 1.45-.782a1.45 1.45 0 01.138-.194c.007 0 .202.063.433.14a7.71 7.71 0 011.612.807c1.518 1.069 2.598 2.866 2.758 4.592l.026.276-.19.089c-.258.12-.606.473-.754.767-.535 1.06.117 2.32 1.301 2.517 1.14.189 2.179-.864 1.983-2.008-.092-.533-.434-1.015-.887-1.248-.163-.084-.26-.16-.27-.21a9.579 9.579 0 01-.06-.459c-.115-.966-.514-2.092-1.061-2.987a7.982 7.982 0 00-2.22-2.328l-.215-.143h2.44v.353c0 .435.079.621.312.74.145.074.228.079 1.446.079s1.301-.005 1.447-.079a.533.533 0 00.232-.233c.075-.145.079-.228.079-1.446s-.005-1.301-.079-1.447a.539.539 0 00-.232-.232c-.147-.075-.23-.08-1.448-.08s-1.3.005-1.446.079c-.233.119-.312.305-.312.74v.353H13.66l-.131-.255c-.327-.631-1.093-1.008-1.804-.886-.538.092-1.02.433-1.254.886l-.131.255H5.516v-.353c0-.435-.079-.621-.312-.74C5.06 2.004 4.978 2 3.75 2.002c-1.218.001-1.31.006-1.447.079zm2.04 1.678v.586h-1.17V3.172h1.172v.586zm7.931-.507a.62.62 0 01.312.507c0 .297-.289.586-.586.586s-.586-.289-.586-.586c0-.188.138-.419.303-.506a.56.56 0 01.557-.001zm8.554.507v.586h-1.172V3.172h1.172v.586zm-9.098 3.04c-.11.054-.538.673-2.504 3.621a334.823 334.823 0 00-2.435 3.68c-.13.25-.06.474.255.818.753.82 1.3 1.738 1.633 2.737.146.438.313 1.154.313 1.34 0 .053-.097.19-.25.352a3.057 3.057 0 00-.802 1.6c-.09.554-.013.831.27.975C8.36 22 8.433 22 12 22s3.639-.002 3.79-.079c.283-.144.36-.421.27-.976a3.058 3.058 0 00-.802-1.6c-.153-.161-.25-.298-.25-.351 0-.186.167-.902.313-1.34a7.56 7.56 0 011.633-2.737c.315-.343.385-.568.256-.817-.035-.067-1.13-1.723-2.435-3.68-2.081-3.12-2.39-3.565-2.516-3.625a.577.577 0 00-.529.002zm-.316 4.177v1.709l-.254.131c-.625.323-1.003 1.082-.888 1.78a1.762 1.762 0 001.471 1.475c1.14.19 2.179-.863 1.982-2.008-.09-.531-.433-1.013-.885-1.247l-.254-.131V9.246l1.677 2.516 1.678 2.516-.23.277a8.894 8.894 0 00-1.732 3.54l-.092.409-.192-.02c-.105-.01-.868-.02-1.695-.02-.827 0-1.59.01-1.695.02l-.192.02-.092-.409a8.894 8.894 0 00-1.733-3.54l-.228-.277 1.667-2.505a303.598 303.598 0 011.677-2.506c.006 0 .01.768.01 1.708zm-6.17.518a.62.62 0 01.31.507.62.62 0 01-.31.507.748.748 0 01-.275.079c-.297 0-.586-.289-.586-.586 0-.188.138-.418.303-.505a.56.56 0 01.557-.002zm14.062 0a.62.62 0 01.311.507c0 .066-.035.19-.078.274a.62.62 0 01-.508.312.62.62 0 01-.507-.312.542.542 0 010-.548c.144-.283.485-.385.782-.233zm-7.032 2.343a.62.62 0 01.312.508.62.62 0 01-.312.507.749.749 0 01-.274.079.62.62 0 01-.507-.312.541.541 0 010-.549c.144-.283.485-.384.781-.233zm1.307 5.841c.325.085.604.256.85.522.174.187.382.52.382.61 0 .01-1.266.02-2.813.02-1.547 0-2.813-.01-2.813-.02 0-.09.209-.423.382-.61.24-.26.524-.437.833-.52.317-.085 2.853-.087 3.18-.002z" fill="#fff"/></svg>