<svg width="24" height="24" fill="none" xmlns="http://www.w3.org/2000/svg"><path fill-rule="evenodd" clip-rule="evenodd" d="M6.012 4.06a1.511 1.511 0 00-.956.792c-.123.241-.122.24-.294 1.846l-.14 1.31-.724.024c-.799.025-.931.055-1.272.29-.237.163-.382.34-.521.637L2 9.183v9.553l.148.299c.172.348.36.53.733.71l.254.122h7.396c5.865 0 7.43-.01 7.56-.05.394-.12.798-.503.96-.91.076-.192.087-.304.101-1.08l.016-.866.476.005c.413.004.505-.007.7-.086a1.58 1.58 0 00.888-1.025c.07-.289.794-9.11.767-9.353a1.563 1.563 0 00-.795-1.15 1.896 1.896 0 00-.444-.142C20.515 5.168 6.527 3.995 6.328 4a1.86 1.86 0 00-.316.06zm7.435 1.307c3.907.324 7.173.608 7.26.631.204.057.473.324.507.506.015.075-.144 2.168-.35 4.652-.4 4.781-.387 4.676-.595 4.864-.17.154-.362.197-.744.168l-.362-.027-.011-3.47-.011-3.47-.094-.234c-.13-.324-.52-.715-.845-.845l-.235-.094-6.271-.01-6.272-.011v-.089c0-.167.27-2.594.298-2.67.076-.216.394-.481.583-.487.021-.001 3.235.263 7.142.586zm4.402 3.488c.2.055.43.286.485.485.024.086.044.345.044.577v.42H2.763v-.44c0-.532.037-.678.21-.846.26-.252-.25-.236 7.578-.238 5.095-.001 7.187.01 7.298.042zm.52 3.097l.01.812H2.764V11.12l7.798.01 7.797.01.01.812zm.009 4.03c0 1.58-.015 2.489-.042 2.584a.864.864 0 01-.158.282c-.244.278.353.259-7.689.247l-7.242-.011-.138-.094a1.07 1.07 0 01-.232-.232l-.094-.138-.01-2.537-.012-2.537h15.617v2.437zM12.69 14.83l-.105.11v2.76l.114.115.115.114h2.02c1.312 0 2.048-.014 2.097-.04.183-.098.194-.187.194-1.564s-.011-1.467-.194-1.564c-.049-.026-.788-.04-2.105-.04h-2.03l-.106.11zm3.652 1.495v.822h-2.974v-1.644h2.974v.822z" fill="#fff" stroke="#fff" stroke-width=".25"/></svg>