<svg width="24" height="24" fill="none" xmlns="http://www.w3.org/2000/svg"><path fill-rule="evenodd" clip-rule="evenodd" d="M11.654 1.046a3.2 3.2 0 00-.575.21 2.482 2.482 0 00-1.315 1.607c-.166.65-.015 1.462.373 2.012.097.137.114.126-.37.22a3.343 3.343 0 00-.66.218c-.506.24-.74.513-1.515 1.764-.366.59-.666 1.088-.666 1.104 0 .017.404.327.898.688l.899.658.058.231c.071.28.235.59.434.822.125.147.156.228.212.57a4.382 4.382 0 01-.26 2.26l-.097.242-1.535.012L6 13.675l.012.633.012.634.483.012.484.012V23h10.314v-8.034l.484-.012.483-.012.012-.634.012-.633-1.535-.011-1.535-.012-.098-.242c-.282-.704-.382-1.581-.26-2.282.055-.315.09-.403.213-.547a2.16 2.16 0 00.434-.823l.06-.231.897-.657c.494-.361.898-.67.898-.689 0-.017-.3-.515-.666-1.105-.776-1.25-1.011-1.523-1.515-1.763a3.34 3.34 0 00-.66-.217c-.484-.095-.466-.084-.37-.221.28-.397.437-.91.438-1.431.001-.655-.233-1.218-.708-1.702a2.442 2.442 0 00-2.235-.696zm1.052 1.393c.399.217.603.572.602 1.046-.002.965-1.19 1.489-1.92.846a1.174 1.174 0 01-.335-1.275c.235-.667 1.022-.96 1.653-.617zm.592 3.737c1.177.207 1.289.236 1.498.39.11.08.809 1.126.844 1.262.006.022-.29.26-.655.53l-.667.489-.023.328c-.042.588-.343.868-.983.918l-.347.027v1.259l.279-.018.28-.018v.424c0 .481.084 1.094.213 1.552.048.17.087.32.087.333 0 .012-.754.022-1.676.022-.922 0-1.676-.01-1.676-.022 0-.012.04-.162.087-.333a6.3 6.3 0 00.214-1.552v-.424l.28.018.278.018v-1.26l-.347-.026c-.42-.033-.646-.143-.83-.406-.108-.153-.133-.238-.153-.514l-.023-.33-.666-.488c-.367-.268-.662-.505-.656-.527.036-.138.728-1.172.84-1.256.21-.157.32-.186 1.406-.375a97.937 97.937 0 001.074-.191c.142-.033.257-.018 1.322.17zm2.718 12.161v3.374H8.28v-6.748h7.736v3.374zm-6.447-.043v2.041h5.158v-4.082H9.569v2.041zm3.868 0v.752h-2.579v-1.504h2.58v.752z" fill="#fff"/></svg>