<svg width="24" height="24" fill="none" xmlns="http://www.w3.org/2000/svg"><path fill-rule="evenodd" clip-rule="evenodd" d="M7.027 3.08a.567.567 0 00-.225.23c-.077.152-.078.224-.078 4.037v3.883l-.32.085a3.646 3.646 0 00-1.511.847c-.191.177-.255.213-.372.213h-.142v-.353c0-.435-.078-.62-.311-.74-.138-.07-.23-.079-.88-.079-.844 0-.973.036-1.113.312a.54.54 0 000 .549c.12.237.303.312.76.312h.372v7.032h-.372c-.457 0-.64.075-.76.312a.54.54 0 000 .549c.14.275.269.311 1.113.311.65 0 .742-.008.88-.078.233-.12.311-.305.311-.74v-.354h.25c.213 0 .51.084 2.08.586l1.831.586 4.18-.001c2.678 0 4.243-.015 4.353-.04.642-.148 1.177-.694 1.332-1.36.047-.2.037-.585-.022-.835l-.026-.108h1.589c1.515 0 1.595-.004 1.742-.079.1-.05.183-.133.233-.233.078-.152.079-.215.079-7.307 0-7.091 0-7.154-.079-7.307a.54.54 0 00-.232-.233C21.535 3 21.475 3 14.354 3c-7.073.002-7.183.003-7.327.08zm4.971 2.91c0 1.744.003 1.824.079 1.972.05.099.133.182.233.232.148.076.227.08 2.032.08 1.806 0 1.885-.004 2.033-.08.1-.05.182-.133.233-.232.075-.148.078-.228.078-1.973V4.171h4.141v12.893h-4.815c-5.174-.001-4.989.006-5.404-.2-.337-.169-.728-.592-.816-.884l-.026-.088h1.485c.944 0 1.561-.016 1.693-.044a1.77 1.77 0 001.366-1.435c.156-.907-.456-1.798-1.366-1.993-.133-.028-.709-.044-1.597-.044h-1.39l-.24-.222a3.648 3.648 0 00-1.56-.855l-.261-.066V4.171h4.102v1.818zm3.516-.354V7.1H13.17V4.17h2.344v1.465zm-7.643 6.801c.458.118.72.274 1.091.647.19.19.395.373.458.405.095.05.367.059 1.699.059 1.512 0 1.593.003 1.74.078a.62.62 0 01.311.508.62.62 0 01-.311.507c-.149.076-.227.079-2.033.079-1.806 0-1.885.003-2.033.078-.3.153-.374.48-.25 1.086a2.994 2.994 0 001.758 2.13c.517.218.588.222 3.67.222 2.765 0 2.84.002 2.99.079a.62.62 0 01.312.507.62.62 0 01-.312.508c-.152.077-.222.078-4.195.078h-4.04l-1.832-.586c-1.783-.57-1.84-.585-2.173-.586H4.38v-4.688h.354c.238 0 .39-.02.467-.059.062-.032.268-.214.457-.404.365-.367.595-.508 1.042-.635.307-.088.855-.094 1.172-.013z" fill="#fff"/></svg>