<svg width="88" height="25" viewBox="0 0 88 25" fill="none" xmlns="http://www.w3.org/2000/svg">
<path fill-rule="evenodd" clip-rule="evenodd" d="M87.3686 0.10026L87.3687 0.100714V0.100728V0.100743V0.100758V0.100773V0.100788V0.100803V0.100818V0.100833V0.100848V0.100863V0.100878C87.3754 0.164534 87.382 0.22791 87.382 0.290456C87.3826 1.88527 87.3826 3.48009 87.3827 5.0749C87.3828 8.79506 87.383 12.5152 87.3896 16.2354C87.3896 16.4768 87.3028 16.5956 87.0991 16.6956C86.2523 17.1124 85.3545 17.2576 84.4209 17.2369C83.6023 17.2199 82.8234 17.052 82.084 16.6937C81.8765 16.5937 81.8011 16.4674 81.8011 16.2297C81.8105 12.5688 81.8105 8.90795 81.8011 5.24707C81.8011 5.02829 81.8709 4.90946 82.0595 4.8227C83.2798 4.25877 84.5359 4.07959 85.8467 4.4568C85.8648 4.46236 85.8829 4.46382 85.9062 4.46572C85.9145 4.46639 85.9236 4.46713 85.9335 4.46812V0C86.4088 0.00377216 86.8841 0.00377216 87.3594 0.00377216C87.3619 0.0359584 87.3653 0.0681446 87.3686 0.10026ZM85.9335 10.7506C85.9335 10.4045 85.9333 10.0584 85.9331 9.71231C85.9325 8.5011 85.9318 7.29054 85.9392 6.07883C85.941 5.87325 85.8713 5.78837 85.6808 5.73934C84.9414 5.54696 84.2096 5.5413 83.4722 5.75254C83.3024 5.80158 83.244 5.87513 83.244 6.05997C83.2515 9.19275 83.2515 12.3255 83.244 15.4564C83.244 15.645 83.3081 15.7129 83.4778 15.7601C84.2247 15.9638 84.9641 15.9675 85.711 15.7582C85.8845 15.7091 85.9392 15.6318 85.9373 15.4489C85.9316 14.2746 85.9323 13.0992 85.933 11.9244V11.9242V11.924C85.9333 11.5328 85.9335 11.1417 85.9335 10.7506ZM48.8654 1.90028C48.7563 1.26822 48.6471 0.636088 48.5382 0.00372795C47.9762 0.00372795 47.4122 0.00372795 46.8502 0.00184187C46.837 0.073014 46.8237 0.144186 46.8103 0.215358C46.7704 0.428984 46.7304 0.64261 46.6936 0.856235C46.5559 1.65971 46.4178 2.46365 46.2796 3.2676C46.1415 4.07154 46.0033 4.87547 45.8656 5.67894L45.8646 5.6849C45.5952 7.24647 45.3259 8.80805 45.0584 10.3715L44.187 15.4809L44.098 16.0051L43.9305 16.9916H45.5035C45.5487 16.6845 45.5946 16.379 45.6403 16.0745C45.7454 15.3746 45.8497 14.6799 45.943 13.9833C45.9713 13.774 46.0448 13.7268 46.2391 13.7306C46.7124 13.7375 47.1867 13.7363 47.6606 13.7352C47.8381 13.7348 48.0157 13.7344 48.1931 13.7344H49.3888C49.468 14.2669 49.5468 14.7942 49.6251 15.3185C49.7091 15.8805 49.7925 16.4392 49.8755 16.9973H51.4447C51.4384 16.9554 51.4324 16.9142 51.4264 16.8736L51.4264 16.8735C51.4072 16.7424 51.3889 16.6175 51.3673 16.4937C51.2593 15.8679 51.151 15.2424 51.0427 14.6169C50.8429 13.4628 50.6432 12.3089 50.445 11.1542C50.2819 10.1989 50.1202 9.24364 49.9584 8.28834C49.7967 7.33304 49.635 6.37774 49.4718 5.42243C49.2709 4.24862 49.0683 3.0756 48.8658 1.90234L48.8654 1.90028ZM47.5451 3.1273C47.5529 2.99928 47.5611 2.86615 47.797 2.93281C47.9385 4.87195 48.2528 6.7837 48.5676 8.69849L48.5677 8.69878C48.7688 9.92203 48.9701 11.1465 49.1267 12.3802H46.2315L46.3356 11.7188L46.3361 11.7158L46.3386 11.6996L46.3395 11.6941C46.4656 10.8924 46.5915 10.0921 46.7163 9.29078C46.7755 8.91218 46.8355 8.53358 46.8956 8.1549L46.8956 8.15473L46.8956 8.15455L46.8957 8.15438L46.8957 8.1542L46.8957 8.15403L46.8957 8.15385L46.8958 8.15368L46.8958 8.1535L46.8958 8.15333L46.8958 8.15315L46.8959 8.15298L46.8959 8.1528L46.8959 8.15272L46.8959 8.15264L46.8959 8.15256L46.8959 8.15248L46.8959 8.1524L46.896 8.15232L46.896 8.15224L46.896 8.15216L46.896 8.15208L46.896 8.152L46.896 8.15192L46.896 8.15184C47.0596 7.12048 47.2232 6.08857 47.3707 5.05465C47.4305 4.63394 47.4619 4.20895 47.4934 3.78372L47.4935 3.78347C47.5087 3.57778 47.5239 3.37203 47.5424 3.16668C47.5434 3.15387 47.5442 3.14079 47.545 3.12764L47.5451 3.1273ZM6.39758 6.0297C6.09015 3.87958 5.447 1.85015 4.27763 0.00368375H0V17.0105C0.330123 17.0105 0.660245 17.01 0.990309 17.0095C1.98026 17.0081 2.96969 17.0067 3.95699 17.018C4.20596 17.0199 4.33232 16.9312 4.45115 16.7313C5.63938 14.7434 6.25235 12.5725 6.48245 10.2904C6.62579 8.87202 6.60127 7.44804 6.39758 6.0297ZM1.61071 15.6827V1.33148C1.75312 1.33148 1.89422 1.33089 2.0343 1.33029H2.03432H2.03433H2.03435H2.03436H2.03438H2.03439H2.03441H2.03442H2.03444H2.03445H2.03447H2.03448C2.45091 1.32853 2.85838 1.3268 3.2648 1.34091C3.35156 1.3428 3.47038 1.45219 3.51376 1.54084C4.01546 2.55932 4.35496 3.63627 4.5926 4.7434C5.00565 6.66531 5.09618 8.6042 4.86985 10.5582C4.67559 12.25 4.26254 13.8796 3.54583 15.4299C3.4553 15.6261 3.34968 15.6959 3.13466 15.6883C2.77887 15.6762 2.42212 15.6785 2.0576 15.6808H2.05732H2.05703H2.05674H2.05646H2.05617H2.05588H2.05559H2.05529H2.055H2.0547H2.0544H2.0541C1.90771 15.6817 1.76006 15.6827 1.61071 15.6827ZM38.6629 0.0089241L38.6627 0.00368375H37.2368C37.233 0.0470636 37.2292 0.0923294 37.2292 0.135709V16.7954C37.2292 16.8382 37.2348 16.8817 37.2402 16.9245L37.2402 16.9246C37.2432 16.9479 37.2461 16.9709 37.2481 16.9935H38.6702V16.6898V0.267735C38.6702 0.180887 38.6666 0.0958495 38.6629 0.00907513L38.6629 0.0089241ZM33.5477 9.46054V6.65971C33.5477 6.60964 33.5454 6.5592 33.5432 6.50879V6.50875C33.5383 6.39968 33.5334 6.29079 33.5515 6.18631C33.6062 5.86945 33.4477 5.76383 33.1686 5.69781C32.5462 5.5507 31.937 5.5639 31.3259 5.75251C31.1656 5.80155 31.109 5.8751 31.1128 6.04674C31.1208 6.42151 31.1193 6.79629 31.1178 7.17788C31.1172 7.33207 31.1165 7.48738 31.1165 7.64425H29.6925C29.6907 7.62028 29.6883 7.59612 29.6858 7.57183C29.6807 7.52154 29.6756 7.47067 29.6756 7.4198C29.6749 7.174 29.6754 6.9282 29.6758 6.68246V6.68052V6.68044V6.68035V6.68027V6.68018V6.6801V6.68002V6.67993V6.67985V6.67976C29.6766 6.18726 29.6775 5.69504 29.6699 5.20366C29.668 5.02825 29.7265 4.93395 29.8774 4.85285C30.6375 4.44357 31.4523 4.27194 32.3066 4.26628C33.1893 4.26062 34.0286 4.43603 34.8132 4.85851C34.9604 4.93772 35.0207 5.02825 35.0207 5.20366C35.0151 8.90792 35.0151 12.6122 35.0188 16.3146C35.0188 16.4768 34.9717 16.5692 34.8264 16.6446C34.089 17.0294 33.3044 17.2048 32.4764 17.2368C31.5371 17.2727 30.6469 17.1105 29.8038 16.6861C29.6096 16.588 29.5322 16.473 29.5341 16.2448C29.5454 14.2832 29.5435 12.3217 29.5341 10.3583C29.5322 10.1395 29.6077 10.0282 29.7925 9.93206C30.7337 9.44922 31.7352 9.30022 32.7801 9.37944C32.951 9.39118 33.1201 9.41104 33.2999 9.43216L33.2999 9.43217L33.3001 9.43219L33.3006 9.43225C33.3805 9.44163 33.4625 9.45127 33.5477 9.46054ZM31.0034 13.2855C31.0034 13.4846 31.0038 13.6836 31.0042 13.8827C31.0053 14.4135 31.0065 14.9444 30.9996 15.4752C30.9977 15.6356 31.0486 15.7035 31.1995 15.7525C31.9275 15.9864 32.6518 15.9637 33.3723 15.7374C33.4477 15.7129 33.542 15.5846 33.542 15.5054C33.548 14.5765 33.5487 13.6475 33.5493 12.7186C33.5497 12.1877 33.5501 11.6568 33.5515 11.1259C33.5515 10.9788 33.5081 10.9034 33.3629 10.8619C32.6461 10.6507 31.9313 10.6356 31.2127 10.8525C31.0467 10.9015 30.9977 10.9807 30.9996 11.1505C31.0053 11.6837 31.0045 12.2169 31.0038 12.751C31.0036 12.929 31.0034 13.1072 31.0034 13.2855ZM67.7197 4.50559H66.2787C66.2787 4.62064 66.2787 4.70929 66.2768 4.79605C66.2768 5.43292 66.2769 6.0698 66.277 6.70667C66.2772 9.88911 66.2775 13.0715 66.2712 16.254C66.2693 16.486 66.3523 16.601 66.5484 16.6953C67.2878 17.0537 68.0667 17.2215 68.8853 17.2404C69.8302 17.263 70.7355 17.1103 71.5899 16.6915C71.7899 16.5935 71.8596 16.469 71.8596 16.2427C71.8534 13.0683 71.8536 9.89528 71.8539 6.72246V6.71412C71.8539 6.07978 71.854 5.44546 71.854 4.81114V4.51313H70.4055V15.6787C69.602 15.9767 68.8023 15.9711 67.9913 15.7787C67.7725 15.7278 67.714 15.6203 67.714 15.3977C67.7203 12.4651 67.7201 9.53121 67.7198 6.59818V6.59807V6.59797V6.59787V6.59777V6.59767C67.7197 6.01092 67.7197 5.4242 67.7197 4.83754V4.50559ZM75.4809 16.9992H74.0418V16.7106C74.0418 16.0738 74.0418 15.437 74.0419 14.8001V14.8C74.0422 11.6171 74.0424 8.4333 74.0361 5.25083C74.0361 5.03205 74.1078 4.917 74.2945 4.82458C75.1131 4.41341 75.9863 4.26064 76.8935 4.2663C77.7649 4.27196 78.6004 4.43605 79.3832 4.83589C79.5491 4.92077 79.6246 5.02262 79.6246 5.22065C79.6201 8.2886 79.6204 11.3565 79.6207 14.4235V14.4343V14.4345V14.4347V14.4348V14.435V14.4352V14.4354C79.6207 15.2014 79.6208 15.9674 79.6208 16.7333V16.9898H78.1704V16.6767C78.1704 15.9726 78.1703 15.2686 78.1701 14.5645V14.5645V14.5644V14.5644V14.5643V14.5643V14.5643V14.5642C78.1695 11.7471 78.1689 8.93029 78.178 6.11466C78.178 5.86946 78.0912 5.77327 77.8762 5.72424C77.0727 5.53563 76.2806 5.53374 75.4828 5.83552C75.4809 9.54359 75.4809 13.2442 75.4809 16.9653V16.9992ZM23.1535 5.83371H24.2285C24.2285 5.97517 24.2285 6.08079 24.2247 6.19018C24.2247 6.75063 24.2248 7.31108 24.2249 7.87153V7.87522C24.2251 10.6745 24.2254 13.4738 24.2191 16.2732C24.2191 16.4806 24.287 16.5919 24.4681 16.6787C25.1433 16.9993 25.8581 17.1672 26.5974 17.2181C27.0256 17.2483 27.4594 17.2351 27.8875 17.2143C28.0007 17.2087 28.2006 17.1087 28.2063 17.037C28.23 16.7678 28.2269 16.4966 28.2236 16.2149C28.2225 16.1156 28.2213 16.0151 28.2213 15.9129C28.1397 15.9129 28.0611 15.9144 27.9845 15.9159C27.8189 15.9191 27.6632 15.922 27.5084 15.9091C27.2011 15.8847 26.8938 15.8538 26.5865 15.8229C26.3713 15.8012 26.1562 15.7796 25.9411 15.7601C25.7204 15.7413 25.6657 15.6357 25.6657 15.4169C25.672 12.8344 25.6717 10.2532 25.6715 7.67223V7.6722V7.67218V7.67215C25.6714 7.15615 25.6714 6.64016 25.6714 6.12417V5.8224H28.0874V4.48894H25.6619V2.33881H24.2172V4.5078H23.1535V5.83371ZM57.2934 4.38514V5.58469C57.0029 5.59986 56.7111 5.59916 56.4188 5.59845C55.6939 5.59669 54.9668 5.59493 54.253 5.83554V16.9936H52.8101V16.7163C52.8101 16.0797 52.8102 15.4429 52.8103 14.8062V14.8061V14.806V14.8059V14.8058V14.8057C52.8105 11.6228 52.8108 8.43898 52.8045 5.25651C52.8045 5.02453 52.8856 4.91136 53.0836 4.82083C53.8211 4.48322 54.6038 4.33045 55.4035 4.29273C55.8063 4.27374 56.21 4.29473 56.6141 4.31574C56.7719 4.32395 56.9299 4.33216 57.0878 4.33799C57.1336 4.33927 57.1786 4.35256 57.225 4.36629C57.2473 4.37291 57.2701 4.37963 57.2934 4.38514ZM10.083 16.9896V4.51701H8.66841V16.9896H10.083ZM21.6428 17.0011H20.2415V4.51333H21.6428V17.0011ZM10.0754 0.380899H8.67025V2.16702H10.0754V0.380899ZM20.2376 0.380899H21.6427V2.1689H20.2376V0.380899ZM64.5016 11.9794C64.5017 11.5724 64.5019 11.1653 64.5019 10.7581C64.5019 10.3515 64.5017 9.94481 64.5016 9.53802C64.5009 8.11457 64.5003 6.69022 64.5076 5.26588C64.5095 5.03955 64.4359 4.91318 64.2379 4.81699C63.4589 4.43412 62.6328 4.26815 61.769 4.26437C60.8637 4.2606 59.9904 4.41526 59.1719 4.82642C58.9795 4.92261 58.921 5.04521 58.921 5.25645C58.9286 8.91733 58.9286 12.5801 58.921 16.241C58.9191 16.4673 58.987 16.5937 59.187 16.6899C59.9357 17.0501 60.7222 17.2217 61.5502 17.2387C62.4951 17.2576 63.4005 17.1067 64.253 16.6804C64.4435 16.5861 64.5095 16.4654 64.5076 16.2504C64.5003 14.8262 64.5009 13.4031 64.5016 11.9794ZM60.3676 6.18629V5.8317C61.2164 5.5205 62.0595 5.51673 62.9063 5.77889C62.9742 5.80153 63.0459 5.94487 63.0478 6.03163C63.0551 6.63452 63.0544 7.23627 63.0538 7.83866C63.0536 8.0108 63.0534 8.18299 63.0534 8.35528V15.3507V15.6808C62.2066 15.9845 61.3635 15.9882 60.5185 15.728C60.4506 15.7072 60.3865 15.5846 60.3752 15.5016C60.359 15.379 60.3621 15.2525 60.3652 15.1263C60.3664 15.0759 60.3676 15.0255 60.3676 14.9754V6.18629Z" fill="white"/>
<path fill-rule="evenodd" clip-rule="evenodd" d="M17.7188 4.67456L17.7188 4.67454L17.7188 4.67452C17.8909 4.53218 18.0635 4.38936 18.2155 4.22677C18.4267 4.00232 18.6644 3.99855 18.9435 4.03061V5.8205H17.8552V6.15057C17.8552 6.69293 17.8549 7.23519 17.8546 7.7774V7.77756V7.77773V7.77789V7.77805V7.77821C17.8536 9.58512 17.8526 11.3914 17.8628 13.1988C17.8647 13.4421 17.7855 13.5779 17.5799 13.659C17.4605 13.706 17.3411 13.7528 17.2213 13.7996C17.1916 13.8119 17.1602 13.8248 17.1272 13.8382C17.0414 13.8732 16.9546 13.9061 16.8673 13.9375C16.6664 14.0155 16.4638 14.0939 16.2582 14.1735L16.2576 14.1737C16.1479 14.2162 16.0373 14.259 15.9258 14.3022V15.9657C16.1373 16.0219 16.3468 16.0742 16.5545 16.1261L16.5545 16.1261L16.5545 16.1261C16.6294 16.1448 16.704 16.1635 16.7783 16.1822C16.985 16.2265 17.1885 16.2799 17.3889 16.3429C17.5507 16.3882 17.7112 16.4361 17.8703 16.4882C18.704 16.7592 18.704 16.7839 18.704 17.6345V17.6575C18.704 17.8976 18.7036 18.1375 18.7033 18.3774V18.3776V18.3778V18.378V18.3781V18.3783C18.7022 19.0974 18.7011 19.816 18.7096 20.5357C18.7115 20.7318 18.6455 20.8337 18.4758 20.9204C17.5422 21.3939 16.5501 21.5957 15.5071 21.6202C15.3866 21.623 15.2665 21.6242 15.1468 21.6235C15.0271 21.6242 14.907 21.623 14.7866 21.6202C13.7436 21.5957 12.7515 21.3939 11.8179 20.9204C11.6482 20.8337 11.5822 20.7318 11.584 20.5357C11.5925 19.8158 11.5915 19.097 11.5904 18.3776V18.3776V18.3776V18.3774L11.5904 18.3761C11.5901 18.1367 11.5897 17.8972 11.5897 17.6575V17.6401C11.5897 16.784 11.5897 16.7598 12.4233 16.4882C12.5825 16.4361 12.743 16.3882 12.9047 16.3429C13.1052 16.2799 13.3087 16.2265 13.5154 16.1822C13.5897 16.1635 13.6643 16.1448 13.7391 16.1261L13.7392 16.1261C13.9468 16.0743 14.1564 16.0219 14.3679 15.9657V14.3022C14.2563 14.259 14.1458 14.2162 14.0361 14.1737L14.0351 14.1734L14.0319 14.1721C13.8276 14.0931 13.6262 14.0151 13.4264 13.9375C13.3391 13.9061 13.2523 13.8732 13.1664 13.8382L13.1222 13.8201C13.1137 13.8166 13.1052 13.8132 13.0969 13.8097C13.0886 13.8063 13.0804 13.8029 13.0723 13.7996C12.9526 13.7528 12.8331 13.706 12.7138 13.659C12.5082 13.5779 12.429 13.4421 12.4309 13.1988C12.441 11.3914 12.44 9.58505 12.439 7.77811V7.77795V7.77779V7.77763L12.439 7.77008C12.4387 7.23031 12.4384 6.69049 12.4384 6.15057V5.8205H11.3502V4.03061C11.6293 3.99855 11.867 4.00232 12.0782 4.22677C12.2301 4.38936 12.4028 4.53218 12.5749 4.67452L12.5749 4.67454L12.575 4.67461L12.575 4.67465L12.5751 4.67469C12.6382 4.72693 12.7013 4.7791 12.7632 4.83216C13.0521 4.67518 13.383 4.54593 13.7392 4.45064C14.1953 4.32113 14.6742 4.26276 15.1468 4.2647C15.6195 4.26276 16.0984 4.32113 16.5545 4.45065C16.9107 4.54594 17.2416 4.67519 17.5305 4.83216C17.5924 4.77906 17.6556 4.72685 17.7188 4.67457L17.7188 4.67456ZM13.9775 9.21922C13.9775 9.50932 13.9779 9.79942 13.9783 10.0895C13.9794 10.8632 13.9806 11.6368 13.9737 12.4105C13.9718 12.5915 14.0265 12.6783 14.1962 12.7292C14.5135 12.8245 14.8303 12.8743 15.1468 12.8784C15.4634 12.8743 15.7802 12.8245 16.0974 12.7292C16.2672 12.6783 16.3219 12.5915 16.32 12.4105C16.3131 11.6368 16.3142 10.8632 16.3154 10.0896L16.3154 10.0867C16.3158 9.79751 16.3162 9.50836 16.3162 9.21922C16.3162 8.95752 16.3159 8.69583 16.3155 8.43414C16.3144 7.64906 16.3134 6.86398 16.3219 6.0789C16.3238 5.87143 16.2502 5.79033 16.0635 5.73563C15.7566 5.64572 15.4513 5.59861 15.1468 5.59447C14.8424 5.59861 14.5371 5.64572 14.2302 5.73563C14.0435 5.79033 13.9699 5.87143 13.9718 6.0789C13.9815 6.84653 13.98 7.61416 13.9785 8.38179C13.978 8.66093 13.9775 8.94007 13.9775 9.21922ZM13.3324 17.6519C13.9375 17.4697 14.542 17.3764 15.1468 17.3719C15.7516 17.3764 16.3562 17.4697 16.9613 17.6519C17.1178 17.699 17.1819 17.7782 17.1782 17.9518C17.1668 18.5421 17.1668 19.1306 17.1782 19.7209C17.1819 19.8982 17.1103 19.9812 16.9556 20.0132C16.8372 20.0377 16.7192 20.0642 16.6012 20.0907L16.6011 20.0907L16.6011 20.0907L16.6011 20.0907C16.2998 20.1583 15.9987 20.2259 15.6938 20.2584C15.511 20.2782 15.3286 20.2899 15.1468 20.2933C14.9651 20.2899 14.7827 20.2782 14.5999 20.2584C14.295 20.2259 13.9939 20.1583 13.6926 20.0907L13.6926 20.0907L13.6926 20.0907L13.6926 20.0907L13.6925 20.0907L13.6925 20.0907C13.5745 20.0642 13.4564 20.0377 13.3381 20.0132C13.1834 19.9812 13.1118 19.8982 13.1155 19.7209C13.1268 19.1306 13.1268 18.5421 13.1155 17.9518C13.1118 17.7782 13.1759 17.699 13.3324 17.6519ZM0.0224609 18.7382H10.2299V19.7454H0.0224609V18.7382ZM87.6081 18.7382H20.2788V19.7454H87.6081V18.7382ZM13.9248 23.0459C13.6645 22.8988 13.4156 22.7574 13.1553 22.6084C12.8309 23.1742 12.5216 23.7174 12.2085 24.27C12.3621 24.3562 12.5119 24.4418 12.6612 24.5271C12.7667 24.5874 12.8718 24.6475 12.978 24.7076C13.1715 24.3683 13.3616 24.0346 13.5512 23.7018C13.6757 23.4832 13.7999 23.265 13.9248 23.0459ZM17.2895 22.6084C17.0292 22.7574 16.7802 22.8988 16.5199 23.0459C16.5887 23.1666 16.6573 23.287 16.7259 23.4074C16.7818 23.5055 16.8377 23.6036 16.8936 23.7018C17.0831 24.0346 17.2732 24.3683 17.4667 24.7076C17.5729 24.6475 17.6781 24.5874 17.7835 24.5271C17.9328 24.4418 18.0826 24.3562 18.2363 24.27C17.9232 23.7174 17.6139 23.1742 17.2895 22.6084ZM15.6505 25.0001H14.7659V23.0876H15.6505V25.0001Z" fill="#C66753"/>
</svg>
