<svg xmlns="http://www.w3.org/2000/svg" viewBox="0 0 102.1 91.75"><defs><style>.cls-1{fill:#fff;fill-rule:evenodd;}</style></defs><g id="Слой_2" data-name="Слой 2"><g id="Слой_1-2" data-name="Слой 1"><path class="cls-1" d="M56.21,81.68C50.13,61.07,91.86,54,96.73,41.54c.93-2.34,1.4-7.53,1.58-14-7.67,6-21.89,11.45-31,17C56.43,51.27,44.94,59,43.68,69,40.3,96.38,83,96.41,101.16,82.94,80.85,94.22,59.06,91.19,56.21,81.68Z"/><path class="cls-1" d="M46.74,84.09C17.93,55,81.78,35.27,97,22.12c5.9-5.11,5.26-10.91,4.9-22.12C83.76,17.44-3.28,42.73,46.74,84.09Z"/><path class="cls-1" d="M23.91,39.42A25.29,25.29,0,0,1,24.74,42v0A85,85,0,0,1,27,56.82a18.09,18.09,0,0,1,.25-2.06c2-12.46,14.22-22.69,25.53-30.19-13.72-3-25.57-24.79-40.26-6.48C11.24,20.21,7.27,22.23.14,23.6a.15.15,0,0,0-.14.14.19.19,0,0,0,.11.18c5,2.42,14.76,2.53,20.74,10.06A15.06,15.06,0,0,1,23.91,39.42Z"/></g></g></svg>