<svg xmlns="http://www.w3.org/2000/svg" viewBox="0 0 504.8 91.75"><defs><style>.cls-1{fill:#fff;fill-rule:evenodd;}</style></defs><g id="Слой_2" data-name="Слой 2"><g id="Слой_1-2" data-name="Слой 1"><path class="cls-1" d="M167.49,69.23a1.21,1.21,0,0,1,.24.71.9.9,0,0,1-.25.64,1,1,0,0,1-.67.26h-6.63a1.57,1.57,0,0,1-1.32-.69l-15.47-21h-9.66V69.68c0,.68-.31,1-.95,1h-5.71a.88.88,0,0,1-.69-.28,1,1,0,0,1-.26-.74V22c0-.69.32-1,.95-1h5.71c.64,0,.95.34.95,1V41.45h8.5L157.63,22a2,2,0,0,1,.86-.73,2.35,2.35,0,0,1,1-.19l6.56,0a1.1,1.1,0,0,1,.7.22A.76.76,0,0,1,167,22a1.3,1.3,0,0,1-.3.77l-17.3,22,18.11,24.47Zm.85-23.29a25.48,25.48,0,0,1,3.41-13,25.78,25.78,0,0,1,44.57,0,25.4,25.4,0,0,1,3.43,13,25.22,25.22,0,0,1-3.43,12.94A25,25,0,0,1,207,68.14a25.61,25.61,0,0,1-38.66-22.2Zm7.68,0A17.77,17.77,0,0,0,178.4,55a17.5,17.5,0,0,0,6.51,6.5,18.63,18.63,0,0,0,18.22,0,17.75,17.75,0,0,0,8.92-15.58,17.83,17.83,0,0,0-2.39-9.1,17.84,17.84,0,0,0-15.62-9,17.84,17.84,0,0,0-9.13,2.4,17.56,17.56,0,0,0-6.51,6.55,17.92,17.92,0,0,0-2.38,9.1ZM230.2,57.2q2-19.83,2.36-34.23a2.06,2.06,0,0,1,.48-1.45,1.69,1.69,0,0,1,1.28-.53h32.19a1.56,1.56,0,0,1,1,.33,1.08,1.08,0,0,1,.39.89v47.2a1.35,1.35,0,0,1-.3.93,1,1,0,0,1-.82.36h-5.3a1.27,1.27,0,0,1-.92-.34,1.29,1.29,0,0,1-.34-1V28.64H240.1q-.65,14.63-2.24,30.22c-.48,3.85-1.67,6.86-3.59,9a9.77,9.77,0,0,1-7.67,3.22,10.12,10.12,0,0,1-2-.14,2.13,2.13,0,0,1-1.06-.48,1,1,0,0,1-.37-.77v-5a1,1,0,0,1,.36-.79,1.5,1.5,0,0,1,1-.29,5.46,5.46,0,0,1,.56,0,5.33,5.33,0,0,0,.56,0,3.72,3.72,0,0,0,3.11-1.76,9.67,9.67,0,0,0,1.44-4.69Zm81.16-36.27c.74,0,1.11.27,1.11.84a1.88,1.88,0,0,1-.12.69L297.83,58.29l0,0-1.78,4.28a16.46,16.46,0,0,1-3,4.94A10.06,10.06,0,0,1,289,70.26a18,18,0,0,1-5.88.84c-1,0-1.53-.39-1.53-1.18V65.09c0-.87.45-1.3,1.36-1.3a6.82,6.82,0,0,0,3.69-.91,6.14,6.14,0,0,0,2.26-2.83l.58-1.42L274.77,22.42a1.54,1.54,0,0,1-.16-.68.73.73,0,0,1,.29-.63,1.24,1.24,0,0,1,.79-.22h5.69a1.39,1.39,0,0,1,.92.33,1.42,1.42,0,0,1,.57.85l10.7,28.09,10.68-28.09a1.51,1.51,0,0,1,.53-.82,1.3,1.3,0,0,1,.86-.32Zm58.78,48.44c.07.89-.35,1.33-1.26,1.33h-5.17a1.3,1.3,0,0,1-.9-.29,1.42,1.42,0,0,1-.39-.94l-3.54-35.12L346.37,67.09a1.7,1.7,0,0,1-.45.82,1.38,1.38,0,0,1-.84.23h-5.37a1.22,1.22,0,0,1-.81-.23,1.79,1.79,0,0,1-.48-.82L325.9,34.35l-3.53,35.12A1.18,1.18,0,0,1,321,70.7h-5.13c-.91,0-1.32-.44-1.25-1.33l5.06-47.19c.11-.81.53-1.22,1.26-1.22h6.66A1.31,1.31,0,0,1,329,22.07l13.36,35.4,13.33-35.4a1.76,1.76,0,0,1,.55-.84,1.42,1.42,0,0,1,.92-.27h6.66c.72,0,1.13.41,1.22,1.22l5.07,47.19Zm28.55-27.92a19.06,19.06,0,0,1,8.46,1.74,12.37,12.37,0,0,1,5.47,5,15.19,15.19,0,0,1,1.88,7.71,15.85,15.85,0,0,1-1.88,7.91,12.54,12.54,0,0,1-5.47,5.11,18.92,18.92,0,0,1-8.46,1.76H380a.86.86,0,0,1-1-1V22a.87.87,0,0,1,1-1h28.53a.91.91,0,0,1,1,1v4.82a.93.93,0,0,1-1,1.05h-21.9V41.45Zm0,22.31a8.25,8.25,0,0,0,6-2.1,7.68,7.68,0,0,0,2.17-5.78,7.54,7.54,0,0,0-2.17-5.7,8.29,8.29,0,0,0-6-2.09h-12V63.76ZM464,69.23a2.27,2.27,0,0,1,.14.58.86.86,0,0,1-.29.68,1.31,1.31,0,0,1-.84.24h-5.71a1.35,1.35,0,0,1-.87-.31,1.66,1.66,0,0,1-.55-.81l-3.72-9.73H430.25l-3.68,9.69a1.66,1.66,0,0,1-.59.82,1.56,1.56,0,0,1-.91.31H419.4c-.72,0-1.09-.28-1.09-.85a1.53,1.53,0,0,1,.13-.62l19.11-47.12a1.75,1.75,0,0,1,.63-.85,1.59,1.59,0,0,1,.93-.3h4.23a1.39,1.39,0,0,1,.92.33,1.61,1.61,0,0,1,.6.82L464,69.23ZM449.65,53.32l-8.46-22.26-8.47,22.26Zm38-32.33a18.58,18.58,0,0,1,8.89,2.07,15.07,15.07,0,0,1,6.07,5.85,17.07,17.07,0,0,1,2.18,8.67,16.73,16.73,0,0,1-2.18,8.57,14.86,14.86,0,0,1-6.07,5.79A18.69,18.69,0,0,1,487.66,54h-9V69.41a1.32,1.32,0,0,1-.32,1,1.26,1.26,0,0,1-.94.34H472.3c-.81,0-1.22-.43-1.22-1.29V22.28a1.33,1.33,0,0,1,.34-.94,1.17,1.17,0,0,1,.88-.35h15.36Zm0,25.71a10,10,0,0,0,4.89-1.2,8.76,8.76,0,0,0,3.38-3.26,9,9,0,0,0,1.23-4.7A9.43,9.43,0,0,0,496,32.79a8.61,8.61,0,0,0-3.39-3.3,10,10,0,0,0-4.9-1.18h-9V46.7Z"/><path class="cls-1" d="M56.21,81.68C50.13,61.07,91.86,54,96.73,41.54c.93-2.34,1.4-7.53,1.58-14-7.67,6-21.89,11.45-31,17C56.43,51.27,44.94,59,43.68,69,40.3,96.38,83,96.41,101.16,82.94,80.85,94.22,59.06,91.19,56.21,81.68Z"/><path class="cls-1" d="M46.74,84.09C17.93,55,81.78,35.27,97,22.12c5.9-5.11,5.26-10.91,4.9-22.12C83.76,17.44-3.28,42.73,46.74,84.09Z"/><path class="cls-1" d="M23.91,39.42A25.29,25.29,0,0,1,24.74,42v0A85,85,0,0,1,27,56.82a18.09,18.09,0,0,1,.25-2.06c2-12.46,14.22-22.69,25.53-30.19-13.72-3-25.57-24.79-40.26-6.48C11.24,20.21,7.27,22.23.14,23.6a.15.15,0,0,0-.14.14.19.19,0,0,0,.11.18c5,2.42,14.76,2.53,20.74,10.06A15.06,15.06,0,0,1,23.91,39.42Z"/></g></g></svg>