<svg width="88" height="25" fill="none" xmlns="http://www.w3.org/2000/svg"><path fill-rule="evenodd" clip-rule="evenodd" d="M87.369.1c.006.065.013.128.013.19v4.785c0 3.72.001 7.44.008 11.16 0 .242-.087.36-.29.46-.848.417-1.745.563-2.68.542a5.542 5.542 0 01-2.336-.543c-.208-.1-.283-.227-.283-.464.01-3.661.01-7.322 0-10.983 0-.219.07-.338.258-.424 1.22-.564 2.477-.743 3.788-.366a.317.317 0 00.06.009l.026.002V0c.476.004.951.004 1.426.004l.01.096zm-1.436 10.65V9.713c0-1.21-.001-2.421.006-3.633.002-.206-.068-.29-.258-.34a4.104 4.104 0 00-2.209.014c-.17.049-.228.122-.228.307.007 3.133.007 6.266 0 9.396 0 .189.064.257.234.304a4.103 4.103 0 002.233-.002c.174-.049.228-.126.226-.31a689.662 689.662 0 01-.004-3.524v-1.173zM48.865 1.9L48.538.004c-.562 0-1.126 0-1.688-.002l-.04.213c-.04.214-.08.428-.116.641l-.414 2.412-.414 2.41-.001.007c-.27 1.561-.54 3.123-.807 4.686l-.871 5.11-.089.524-.167.987h1.573l.136-.918c.105-.7.21-1.394.303-2.09.028-.21.102-.257.296-.253.473.007.948.005 1.422.004h1.728l.236 1.584.25 1.678h1.57l-.019-.123a11.758 11.758 0 00-.059-.38l-.324-1.877c-.2-1.154-.4-2.308-.598-3.463l-.487-2.866-.486-2.866-.606-3.52V1.9zm-1.32 1.227c.008-.128.016-.26.252-.194.142 1.939.456 3.85.77 5.765.202 1.224.403 2.448.56 3.682H46.23l.105-.661v-.003l.003-.016v-.006c.127-.802.253-1.602.377-2.403l.18-1.136v-.003c.164-1.032.327-2.063.475-3.097.06-.421.09-.846.122-1.271.016-.206.03-.412.05-.617l.002-.04zM6.398 6.03C6.09 3.88 5.447 1.85 4.278.004H0V17.01h.99c.99-.002 1.98-.003 2.967.008.249.002.375-.087.494-.287 1.188-1.988 1.801-4.159 2.031-6.44a17.512 17.512 0 00-.084-4.261zM1.61 15.683V1.33h.423c.417-.002.824-.004 1.23.01.088.002.206.111.25.2.501 1.018.841 2.095 1.079 3.202.413 1.922.503 3.861.277 5.815-.194 1.692-.607 3.322-1.324 4.872-.09.196-.196.266-.411.258a25.69 25.69 0 00-1.077-.007h-.003l-.444.002zM38.663.009V.004h-1.426a1.537 1.537 0 00-.008.132v16.66c0 .042.006.086.011.128l.008.07h1.422V.268c0-.087-.003-.172-.007-.259zM33.548 9.46v-2.8c0-.05-.003-.1-.005-.151-.005-.11-.01-.218.008-.323.055-.317-.103-.422-.382-.488a3.435 3.435 0 00-1.843.055c-.16.049-.217.122-.213.294.008.375.006.75.005 1.13l-.002.467h-1.424a2.641 2.641 0 00-.006-.072 1.51 1.51 0 01-.01-.152v-.74c0-.493.002-.985-.006-1.476-.002-.176.056-.27.207-.351.76-.41 1.575-.581 2.43-.587.882-.005 1.722.17 2.506.593.147.079.208.17.208.345-.006 3.704-.006 7.408-.002 11.11 0 .163-.047.255-.193.33-.737.385-1.522.56-2.35.593-.939.036-1.83-.127-2.672-.55-.194-.099-.272-.214-.27-.442.011-1.962.01-3.923 0-5.887-.002-.219.074-.33.259-.426.94-.483 1.942-.632 2.987-.553.171.012.34.032.52.053l.248.029zm-2.545 3.825l.001.597c.001.53.002 1.061-.004 1.592-.002.16.049.229.2.277.727.234 1.452.212 2.172-.015.076-.024.17-.152.17-.232.006-.929.007-1.857.007-2.786l.002-1.593c0-.147-.043-.223-.188-.264a3.68 3.68 0 00-2.15-.01c-.166.05-.215.129-.213.298.005.534.005 1.067.004 1.601v.535zm36.717-8.78h-1.441c0 .115 0 .203-.002.29v1.91c0 3.183 0 6.365-.006 9.548-.002.232.081.347.277.441.74.359 1.519.526 2.337.545.945.023 1.85-.13 2.705-.548.2-.099.27-.223.27-.45-.007-3.174-.006-6.347-.006-9.52V4.512h-1.448V15.68c-.804.298-1.604.292-2.415.1-.219-.051-.277-.159-.277-.381.006-2.933.006-5.867.006-8.8V4.506zm7.76 12.493h-1.438V14.8c0-3.183 0-6.367-.006-9.55 0-.218.072-.333.258-.425.82-.412 1.692-.564 2.6-.559.87.006 1.706.17 2.49.57.165.085.24.187.24.385-.004 3.068-.004 6.136-.003 9.203v2.566h-1.45v-2.425c-.002-2.818-.002-5.635.007-8.45 0-.246-.087-.342-.302-.39-.803-.19-1.595-.191-2.393.11-.002 3.709-.002 7.41-.002 11.13V17zM23.154 5.834h1.076c0 .141 0 .247-.004.356v1.685c0 2.8 0 5.599-.006 8.398 0 .208.068.319.25.406.674.32 1.39.488 2.128.54.429.03.862.016 1.29-.005.114-.005.314-.105.32-.177.023-.27.02-.54.017-.822-.002-.1-.003-.2-.003-.302-.081 0-.16.001-.236.003a4.652 4.652 0 01-.477-.007c-.307-.024-.614-.055-.921-.086-.216-.022-.43-.043-.646-.063-.22-.019-.275-.124-.275-.343.006-2.583.006-5.164.006-7.745v-1.85h2.415V4.49h-2.425V2.34h-1.445v2.169h-1.063v1.326zm34.14-1.449v1.2c-.29.015-.582.014-.874.013-.725-.001-1.452-.003-2.166.238v11.158H52.81v-2.188c0-3.183 0-6.367-.006-9.55 0-.231.082-.345.28-.435.737-.338 1.52-.49 2.32-.528.402-.02.806.002 1.21.023.158.008.316.016.474.022.046.001.09.015.137.028l.068.02zM10.083 16.99V4.517H8.668V16.99h1.415zm11.56.011H20.24V4.513h1.402v12.488zM10.075.381H8.67v1.786h1.405V.381zm10.163 0h1.405v1.788h-1.405V.38zm44.264 11.598V9.538c-.001-1.423-.002-2.848.006-4.272.002-.226-.072-.353-.27-.449-.78-.383-1.605-.549-2.469-.553-.905-.003-1.779.151-2.597.562-.192.097-.251.22-.251.43.008 3.661.008 7.324 0 10.985-.002.226.066.353.266.449a5.64 5.64 0 002.363.549c.945.019 1.85-.132 2.703-.559.19-.094.257-.215.255-.43a760.13 760.13 0 01-.006-4.27zm-4.134-5.793v-.354a3.857 3.857 0 012.538-.053c.068.023.14.166.142.253.007.603.006 1.204.006 1.807v7.841a3.906 3.906 0 01-2.535.047c-.068-.02-.133-.143-.144-.226a2.427 2.427 0 01-.01-.376l.003-.15v-8.79z" fill="#fff"/><path fill-rule="evenodd" clip-rule="evenodd" d="M17.719 4.675c.172-.143.345-.286.496-.448.212-.225.45-.228.729-.196v1.79h-1.089v1.956c-.001 1.807-.002 3.613.008 5.42.002.244-.078.38-.283.461a148.864 148.864 0 01-.713.278c-.2.079-.403.157-.609.237l-.332.128v1.664c.211.056.42.108.629.16l.223.056c.207.045.41.098.61.16.163.046.323.094.482.146.834.271.834.296.834 1.146v.744c-.002.72-.003 1.438.006 2.158.002.196-.065.298-.234.384-.934.474-1.926.676-2.969.7-.12.003-.24.004-.36.003-.12.001-.24 0-.36-.003-1.043-.024-2.036-.226-2.97-.7-.169-.086-.235-.188-.233-.384.008-.72.008-1.439.006-2.158v-.738c0-.856 0-.88.833-1.152.16-.052.32-.1.482-.145.2-.063.404-.116.61-.16l.224-.057c.208-.052.417-.104.629-.16v-1.664l-.332-.128-.004-.002a438.791 438.791 0 01-.866-.334l-.044-.018-.025-.01-.025-.01-.358-.141c-.206-.081-.285-.217-.283-.46.01-1.808.009-3.614.008-5.42V5.82H11.35V4.03c.28-.031.517-.028.728.197.152.162.325.305.497.448l.188.157c.29-.157.62-.286.976-.381.456-.13.935-.188 1.408-.186.473-.002.951.056 1.408.186.356.095.687.224.976.381.061-.053.125-.105.188-.157zm-3.742 4.544l.001.87c.001.774.003 1.548-.004 2.322-.002.18.053.267.222.318.318.096.634.145.95.15.317-.005.634-.054.951-.15.17-.05.225-.137.223-.318-.007-.774-.006-1.548-.005-2.321v-.003l.001-.868v-.785c-.002-.785-.003-1.57.006-2.355.002-.208-.072-.289-.258-.343a3.413 3.413 0 00-.917-.142c-.305.005-.61.052-.917.142-.187.054-.26.135-.258.343.01.768.008 1.535.007 2.303l-.002.837zm-.645 8.433a6.431 6.431 0 011.815-.28 6.41 6.41 0 011.814.28c.157.047.22.126.217.3a45.76 45.76 0 000 1.769c.004.177-.068.26-.222.292-.119.025-.237.051-.355.078-.301.067-.602.135-.907.167-.183.02-.365.032-.547.035a6.146 6.146 0 01-.547-.035c-.305-.032-.606-.1-.907-.167a21.74 21.74 0 00-.355-.078c-.155-.032-.226-.115-.222-.292.01-.59.01-1.179 0-1.77-.004-.173.06-.252.216-.3zM.022 18.738H10.23v1.007H.022v-1.007zm87.586 0h-67.33v1.007h67.33v-1.007zm-73.683 4.308l-.77-.438c-.324.566-.633 1.11-.946 1.662l.452.257.317.18.573-1.005.374-.656zm3.364-.438c-.26.15-.509.29-.77.438.07.12.138.241.207.361l.168.295.573 1.006.317-.18c.149-.086.299-.172.452-.258-.313-.553-.622-1.096-.947-1.662zM15.65 25h-.884v-1.912h.884V25z" fill="#C66753"/></svg>