<svg width="34" height="34" viewBox="0 0 34 34" fill="none" xmlns="http://www.w3.org/2000/svg">
<path fill-rule="evenodd" clip-rule="evenodd" d="M11.6448 7.06997C11.5551 7.11071 11.4509 7.19095 11.4134 7.24823C11.3758 7.30555 11.1545 7.85406 10.9216 8.46711C10.4596 9.68303 10.4311 9.81683 10.586 10.0444C10.7592 10.2989 10.7922 10.3093 12.1041 10.5221C13.4632 10.7425 13.5423 10.7434 13.7574 10.5405C14.0263 10.287 14.0206 9.88858 13.7447 9.63927C13.6222 9.52866 13.5428 9.49695 13.254 9.44338C13.0645 9.40823 12.9028 9.37284 12.8947 9.36475C12.8638 9.33386 13.8639 8.94809 14.2728 8.83325C15.2359 8.56268 16.3999 8.45695 17.3429 8.55439C20.2459 8.85429 22.7699 10.5911 24.0251 13.1525C24.4102 13.9383 24.6262 14.6003 24.7972 15.5181C24.896 16.0485 24.8963 17.6829 24.7977 18.2161C24.5613 19.4946 24.1636 20.4828 23.4587 21.5434C23.1258 22.0445 23.0885 22.1187 23.0885 22.2801C23.0885 22.6596 23.366 22.9236 23.7372 22.8973C23.8628 22.8884 23.9818 22.8507 24.0597 22.7953C24.2497 22.66 24.8623 21.7089 25.1817 21.0534C25.614 20.1661 25.8829 19.3159 26.0479 18.3138C26.1493 17.6983 26.1491 16.0337 26.0475 15.4204C25.7109 13.3868 24.8314 11.6208 23.4407 10.1858C21.9655 8.66375 20.1244 7.71627 17.9467 7.35857C17.2919 7.25101 15.7408 7.26027 15.0717 7.37578C14.1855 7.5287 13.3675 7.77155 12.6522 8.09406C12.5144 8.15619 12.3942 8.19951 12.385 8.19036C12.3758 8.18117 12.4073 8.06672 12.455 7.93601C12.601 7.53554 12.4947 7.21902 12.1637 7.06868C11.9612 6.97676 11.8495 6.97703 11.6448 7.06997ZM8.82791 11.294C8.40985 11.5489 7.60055 13.1911 7.27417 14.4469C7.04618 15.324 7 15.7319 7 16.8671C7 17.7975 7.01067 17.9824 7.08997 18.4246C7.5722 21.1139 9.0285 23.3594 11.2605 24.8553C12.4235 25.6347 14.0116 26.2181 15.4247 26.3849C16.9493 26.5649 18.596 26.3647 19.952 25.8345C20.1745 25.7475 20.3644 25.6842 20.374 25.6939C20.3837 25.7035 20.3473 25.8288 20.2933 25.9724C20.1287 26.4097 20.1819 26.6906 20.4696 26.9036C20.7002 27.0743 21.1258 27.0095 21.2901 26.7787C21.3339 26.7172 21.564 26.1446 21.8016 25.5061C22.1781 24.4942 22.2302 24.3254 22.2074 24.1905C22.1817 24.0385 22.0121 23.8019 21.8768 23.7295C21.7882 23.6821 19.5495 23.2991 19.3607 23.2991C18.9637 23.2991 18.668 23.6982 18.7823 24.0796C18.87 24.3725 19.0345 24.4883 19.4912 24.5788L19.6671 24.6136L19.1749 24.776C16.5857 25.6301 13.7582 25.1711 11.5733 23.542C11.1573 23.2318 10.4717 22.579 10.1235 22.1616C9.39425 21.2872 8.7964 20.1275 8.50443 19.0208C8.30858 18.2784 8.26248 17.9354 8.24109 17.0618C8.22385 16.3568 8.23284 16.1582 8.30428 15.6655C8.47226 14.5068 8.83863 13.5014 9.47585 12.4504C9.70823 12.0672 9.7356 12.0006 9.7356 11.8179C9.7356 11.5882 9.65728 11.451 9.44273 11.305C9.27687 11.1921 9.00305 11.1872 8.82791 11.294ZM13.4502 11.5444C12.7185 11.8493 11.9011 12.2497 11.7549 12.3748C11.6684 12.4488 11.5486 12.6096 11.4887 12.7321C11.3483 13.0191 11.349 13.3152 11.4918 14.0089C12.2045 17.4694 15.065 20.5184 18.5332 21.5144C19.1239 21.6841 19.7412 21.7882 20.0304 21.7671C20.3141 21.7463 20.5924 21.6083 20.78 21.3952C20.8757 21.2864 21.061 20.9317 21.3253 20.3511C21.7614 19.3933 21.801 19.2287 21.6882 18.8417C21.5774 18.4614 21.4446 18.3431 20.4827 17.7678C19.5183 17.191 19.2903 17.0964 18.9678 17.139C18.6635 17.1793 18.474 17.2818 18.1653 17.573L17.8837 17.8387L17.6806 17.7875C16.7737 17.5588 15.607 16.3923 15.364 15.4712L15.3126 15.2762L15.5984 14.9707C15.7944 14.7611 15.9041 14.6065 15.9477 14.4786C16.0189 14.2697 16.0306 13.9234 15.9734 13.7237C15.9122 13.5105 14.9508 11.9192 14.7759 11.7416C14.5826 11.5454 14.2546 11.4123 13.9668 11.4133C13.8256 11.4138 13.6668 11.4541 13.4502 11.5444Z" fill="white"/>
</svg>
