<svg width="24" height="20" viewBox="0 0 24 20" fill="none" xmlns="http://www.w3.org/2000/svg">
<path fill-rule="evenodd" clip-rule="evenodd" d="M1.57381 2.07239C1.43197 2.11029 1.29511 2.16191 1.26975 2.18712C1.21832 2.23823 11.4155 12.4101 11.6337 12.5253C11.7969 12.6116 12.2031 12.6116 12.3663 12.5253C12.5828 12.4109 22.7817 2.23822 22.7307 2.18763C22.7055 2.16266 22.559 2.10964 22.405 2.06983C22.156 2.00542 21.0026 1.99771 11.9784 2.00047C3.18881 2.00313 1.79723 2.01274 1.57381 2.07239ZM0.0859491 3.45595C0.00418003 3.68899 0 4.02826 0 10.3987C0 16.7691 0.00418003 17.1084 0.0859491 17.3414C0.133245 17.4762 0.186129 17.5865 0.203507 17.5865C0.220838 17.5865 1.86237 15.9692 3.85127 13.9926L7.46748 10.3987L3.85127 6.8048C1.86237 4.82816 0.220838 3.21091 0.203507 3.21091C0.186129 3.21091 0.133245 3.32115 0.0859491 3.45595ZM20.1487 6.8048L16.5325 10.3987L20.1487 13.9926C22.1376 15.9692 23.7792 17.5865 23.7965 17.5865C23.8139 17.5865 23.8668 17.4762 23.9141 17.3414C23.9958 17.1084 24 16.7691 24 10.3987C24 4.02826 23.9958 3.68899 23.9141 3.45595C23.8668 3.32115 23.8139 3.21091 23.7965 3.21091C23.7792 3.21091 22.1376 4.82816 20.1487 6.8048ZM4.81522 14.995C2.48726 17.3086 1.23969 18.5804 1.26932 18.6098C1.2945 18.6347 1.44103 18.6877 1.59499 18.7276C1.84377 18.7919 3.00193 18.8 12 18.8C20.9981 18.8 22.1562 18.7919 22.405 18.7276C22.559 18.6877 22.7055 18.6347 22.7307 18.6098C22.7604 18.5803 21.5112 17.307 19.1744 14.9848L15.5724 11.4052L14.4555 12.5049C13.4335 13.5111 13.3068 13.62 12.9653 13.7869L12.592 13.9692H12H11.408L11.0347 13.7862C10.6943 13.6194 10.5639 13.5073 9.55411 12.5144C8.94505 11.9155 8.43776 11.4255 8.42677 11.4255C8.41578 11.4255 6.79059 13.0318 4.81522 14.995Z" fill="#C66753"/>
</svg>
