<svg width="40" height="40" viewBox="0 0 40 40" fill="none" xmlns="http://www.w3.org/2000/svg">
<path fill-rule="evenodd" clip-rule="evenodd" d="M20 0H0V20V40H20H40V20V0H20ZM20 0C31.0457 0 40 8.9543 40 20C40 31.0457 31.0457 40 20 40C8.9543 40 0 31.0457 0 20C0 8.9543 8.9543 0 20 0Z" fill="#C66753"/>
<path fill-rule="evenodd" clip-rule="evenodd" d="M18.1013 0.0485653C11.8427 0.699375 6.35763 4.10544 3.02561 9.41023C-1.69867 16.9316 -0.816945 26.8655 5.15587 33.4092C8.46138 37.0308 12.5953 39.1959 17.5528 39.9021C18.4783 40.0339 21.5541 40.0323 22.5204 39.8994C27.0481 39.2769 31.103 37.2688 34.187 34.1218C35.1991 33.089 35.4147 32.842 36.0861 31.9467C38.0866 29.2784 39.3964 26.0256 39.9019 22.4706C40.0327 21.5495 40.0327 18.4596 39.9018 17.539C39.5646 15.1691 38.9516 13.1499 37.9681 11.1695C36.926 9.07136 35.8567 7.57554 34.1922 5.88777C31.1046 2.75685 27.2386 0.81194 22.7942 0.153459C21.8345 0.0112263 19.0571 -0.0507704 18.1013 0.0485653ZM24.7365 8.57625C26.9851 8.72193 28.3 9.21477 29.5026 10.3626C30.7244 11.5288 31.2882 12.9614 31.4384 15.2824C31.5374 16.8117 31.5373 23.1575 31.4382 24.7111C31.2889 27.0542 30.7131 28.503 29.4604 29.6886C28.2943 30.7922 26.946 31.2902 24.7365 31.4333C23.2354 31.5306 16.7987 31.5306 15.2976 31.4333C13.049 31.2877 11.7341 30.7948 10.5315 29.647C9.30962 28.4807 8.7459 27.0482 8.5957 24.7272C8.49744 23.2093 8.49799 16.6818 8.59656 15.2377C8.75294 12.9455 9.31861 11.5202 10.5315 10.3626C11.6853 9.26135 13.0723 8.71833 15.0787 8.5822C16.4011 8.49249 23.3778 8.48819 24.7365 8.57625ZM17.1617 10.6201C14.8116 10.6625 14.4322 10.6869 13.9039 10.8301C12.2398 11.281 11.2951 12.2268 10.8495 13.8878C10.7077 14.4162 10.6832 14.8083 10.6397 17.2455C10.6126 18.7631 10.6126 21.2465 10.6397 22.7641C10.6832 25.2013 10.7077 25.5933 10.8495 26.1218C11.2952 27.7834 12.2433 28.7321 13.9039 29.1781C14.432 29.32 14.8239 29.3445 17.2594 29.3881C18.7762 29.4152 21.258 29.4152 22.7746 29.3881C25.2302 29.3442 25.5992 29.3207 26.1435 29.1747C27.7636 28.74 28.7447 27.7586 29.182 26.1351C29.3292 25.5886 29.3519 25.2296 29.3953 22.7641C29.4219 21.2465 29.4219 18.7631 29.3953 17.2455C29.3523 14.7997 29.3284 14.4181 29.1854 13.8878C28.7365 12.2231 27.7851 11.272 26.1302 10.8337C25.5202 10.6722 25.3587 10.6646 20.9558 10.5911C20.3319 10.5807 18.6245 10.5937 17.1617 10.6201ZM26.6419 12.5733C26.9416 12.6866 27.2891 13.0244 27.4193 13.329C27.7973 14.213 27.1226 15.2298 26.158 15.2298C25.4209 15.2298 24.789 14.6011 24.789 13.8675C24.789 12.9196 25.7614 12.2404 26.6419 12.5733ZM21.915 14.4232C22.861 14.7553 23.3863 15.086 24.1288 15.8169C24.8486 16.5254 25.2985 17.2317 25.6247 18.1652C25.8279 18.747 25.8435 18.8777 25.8435 20.0048C25.8435 21.1319 25.8279 21.2626 25.6247 21.8443C25.3093 22.7467 24.8475 23.4819 24.1697 24.1601C23.4919 24.8383 22.7573 25.3004 21.8554 25.616C21.274 25.8193 21.1435 25.8349 20.017 25.8349C18.8906 25.8349 18.76 25.8193 18.1786 25.616C17.2457 25.2895 16.5398 24.8394 15.8318 24.1191C15.1049 23.3799 14.7749 22.8568 14.4342 21.9039C14.1987 21.2454 14.189 21.1697 14.1915 20.0048C14.1939 18.8988 14.2127 18.7361 14.4047 18.1652C14.8124 16.9523 15.6825 15.8101 16.7287 15.1141C17.8754 14.3513 18.6943 14.1241 20.1735 14.1583C21.1158 14.1801 21.3035 14.2086 21.915 14.4232ZM19.0944 16.291C17.0377 16.8449 15.7851 18.9098 16.3018 20.8947C16.6759 22.3319 17.6934 23.3486 19.1333 23.7239C21.8219 24.4246 24.4341 21.8108 23.7338 19.1205C23.1887 17.0264 21.098 15.7514 19.0944 16.291Z" fill="#C66753"/>
</svg>
