<svg width="20" height="20" viewBox="0 0 20 20" fill="none" xmlns="http://www.w3.org/2000/svg">
<path fill-rule="evenodd" clip-rule="evenodd" d="M4.21926 0.0417776C3.55323 0.297446 2.31106 1.51982 1.15599 3.05629C0.698286 3.66515 0.339516 4.21895 0.151067 4.6076L0 4.91907L0.0482582 5.33689C0.430865 8.65104 3.1905 12.9799 6.89213 16.0725C9.50241 18.2532 12.3207 19.6634 14.6419 19.9502C15.0244 19.9975 15.0469 19.9956 15.2882 19.8969C16.2733 19.4938 18.5978 17.6257 19.4774 16.5302C20.036 15.8345 20.1181 15.4999 19.8593 14.9742C19.6833 14.6166 19.4968 14.4527 18.5074 13.7864C16.4906 12.4281 15.0491 11.6926 14.4057 11.6936C13.9256 11.6944 13.6535 11.893 12.8714 12.8135C12.5966 13.1371 12.3474 13.4018 12.3177 13.4018C12.2231 13.4018 11.551 13.1282 11.146 12.9248C9.71537 12.2063 8.51691 11.1463 7.63318 9.8179C7.30529 9.32499 6.83542 8.40425 6.68485 7.95946L6.58475 7.66374L6.74828 7.51793C6.83821 7.43771 7.10892 7.20367 7.34979 6.99784C8.09425 6.3619 8.26933 6.11536 8.30008 5.65999C8.31321 5.4652 8.29366 5.32384 8.22349 5.10547C8.09525 4.70674 7.64372 3.79371 7.22552 3.08759C6.75098 2.28633 5.72431 0.746939 5.49256 0.489146C5.15242 0.110831 4.57124 -0.0933704 4.21926 0.0417776Z" fill="#C66753"/>
</svg>
