<svg width="28" height="26" viewBox="0 0 28 26" fill="none" xmlns="http://www.w3.org/2000/svg">
<path d="M21.9159 6.20825L11.5094 15.8813C11.1438 16.2212 10.9075 16.6775 10.8407 17.1722L10.4866 19.7989C10.4394 20.1493 9.94627 20.1846 9.8496 19.8445L8.4863 15.0547C8.33072 14.508 8.55755 13.9244 9.04145 13.6263L21.6508 5.85973C21.8771 5.72051 22.1106 6.02725 21.9159 6.20825ZM26.9652 0.862891L0.486746 11.0774C-0.16602 11.3293 -0.161014 12.2547 0.494448 12.4995L6.94605 14.9078L9.4435 22.9389C9.60352 23.4532 10.2328 23.6429 10.6503 23.3024L14.2466 20.3706C14.6237 20.0633 15.1601 20.0482 15.5537 20.334L22.0407 25.0437C22.4873 25.368 23.1198 25.1234 23.2321 24.5831L27.9834 1.72689C28.1061 1.13748 27.527 0.646073 26.9652 0.862891Z" fill="#C66753"/>
</svg>
