<svg width="40" height="40" viewBox="0 0 40 40" fill="none" xmlns="http://www.w3.org/2000/svg">
<path fill-rule="evenodd" clip-rule="evenodd" d="M20 0H0V20V40H20H40V20V0H20ZM20 0C31.0457 0 40 8.9543 40 20C40 31.0457 31.0457 40 20 40C8.9543 40 0 31.0457 0 20C0 8.9543 8.9543 0 20 0Z" fill="#C66753"/>
<path fill-rule="evenodd" clip-rule="evenodd" d="M18.1325 0.046443C11.3351 0.702074 5.26377 4.81764 2.18717 10.8554C1.09912 12.9907 0.456237 15.0497 0.10446 17.5255C-0.0514672 18.6235 -0.0288452 21.4639 0.145712 22.688C0.455689 24.8618 1.09709 26.9217 2.08009 28.9006C4.03036 32.8265 7.14593 35.9394 11.0827 37.8955C17.4645 41.0665 25.0068 40.6305 30.9592 36.7464C33.2866 35.2277 35.4924 32.9763 36.9982 30.5823C37.5705 29.6724 38.4346 27.9035 38.8271 26.8387C39.2225 25.7655 39.6837 23.903 39.8547 22.688C40.028 21.4572 40.0514 18.6099 39.8971 17.5255C39.4351 14.2773 38.4042 11.512 36.6929 8.92937C35.965 7.83102 35.2382 6.94488 34.2255 5.92138C31.1035 2.76603 27.22 0.809077 22.7793 0.153525C21.8218 0.0121832 19.1307 -0.0498444 18.1325 0.046443ZM21.5218 13.6928C21.6913 13.7789 21.9026 13.9488 21.9915 14.0705C22.1469 14.2832 22.1533 14.3915 22.1569 16.8864C22.161 19.6293 22.2044 20.036 22.5165 20.2544C22.728 20.4024 22.8621 20.3501 23.2743 19.9588C24.1962 19.0837 25.4004 17.1858 26.1196 15.4744C26.3433 14.9421 26.6105 14.4225 26.7133 14.3197C26.9745 14.0588 27.3566 14.0267 29.8261 14.058C31.6619 14.0813 31.9708 14.1028 32.191 14.2227C32.5389 14.412 32.5836 14.6623 32.3811 15.2888C32.1393 16.0377 31.687 16.7612 30.1839 18.8038C28.4583 21.1488 28.3067 21.4341 28.5425 21.8914C28.591 21.9853 29.2196 22.6606 29.9395 23.392C31.192 24.6643 32.0503 25.7026 32.3742 26.3369C32.6624 26.9013 32.5078 27.4196 31.9681 27.6985C31.6543 27.8606 30.3088 27.9148 28.6055 27.8339C26.7092 27.7438 26.6074 27.6928 25.0421 26.0478C23.8114 24.7544 23.5269 24.5261 23.1449 24.5261C22.6705 24.5261 22.527 24.8206 22.2687 26.3252C22.1261 27.1556 22.0941 27.2435 21.8513 27.4697C21.6172 27.6879 21.5181 27.7211 20.9509 27.7712C18.8822 27.9542 16.6459 27.3437 14.9516 26.1333C13.2203 24.8965 11.3766 22.5091 9.5506 19.1397C8.73425 17.6333 7.47618 14.9181 7.47618 14.6626C7.47618 14.5495 7.54922 14.3642 7.63845 14.2509L7.80064 14.0448H9.75639C10.9103 14.0448 11.8512 14.0798 12.0515 14.1302C12.5403 14.2532 12.8139 14.5869 13.2316 15.5701C14.14 17.7083 15.8094 20.1905 16.4462 20.3503C16.8629 20.4548 17.0377 20.1524 17.1945 19.0555C17.2893 18.3928 17.2267 15.9709 17.1032 15.5242C17.0029 15.1614 16.6696 14.8522 16.1965 14.683C15.965 14.6002 15.803 14.4918 15.787 14.4089C15.7281 14.1036 16.1723 13.7162 16.752 13.5672C16.8811 13.534 17.9379 13.5135 19.1003 13.5216C21.0419 13.5352 21.2388 13.5491 21.5218 13.6928Z" fill="#C66753"/>
</svg>
