<svg width="28" height="28" viewBox="0 0 28 28" fill="none" xmlns="http://www.w3.org/2000/svg">
<path fill-rule="evenodd" clip-rule="evenodd" d="M12.9865 0.00905181C10.8696 0.215065 9.27332 0.671874 7.54202 1.56693C4.89899 2.93342 2.76479 5.10786 1.44522 7.77881C0.938264 8.80498 0.699339 9.43397 0.434373 10.4403C0.100328 11.7087 0.00306984 12.4798 5.4497e-05 13.8831C-0.00142576 14.5817 0.0274119 15.34 0.0667209 15.635C0.365623 17.8782 1.07012 19.8113 2.24835 21.6212L2.64105 22.2245L1.76869 24.7961C1.28887 26.2105 0.903889 27.3753 0.913154 27.3846C0.922474 27.3938 2.12252 27.0205 3.57997 26.555C5.03748 26.0894 6.24943 25.7085 6.27328 25.7085C6.29712 25.7085 6.52212 25.836 6.77327 25.9919C7.02442 26.1478 7.55063 26.4286 7.94262 26.6159C11.4872 28.31 15.5392 28.455 19.1687 27.0177C23.281 25.3891 26.4396 21.8265 27.5671 17.5449C27.9124 16.2334 28 15.5146 28 13.9926C28 12.4706 27.9124 11.7517 27.5671 10.4403C26.2444 5.41746 22.2129 1.51312 17.1257 0.328391C16.2709 0.129331 15.3816 0.028487 14.3022 0.00828535C13.6992 -0.00304728 13.1071 -0.0027188 12.9865 0.00905181ZM9.64278 6.5055C9.73357 6.55253 9.86076 6.68584 9.92551 6.80168C10.0889 7.09425 11.4218 10.2999 11.4606 10.4938C11.5103 10.7418 11.2673 11.1635 10.7224 11.7754C10.1537 12.4138 10.0315 12.6188 10.0821 12.849C10.174 13.2668 11.442 14.9459 12.2231 15.6843C13.4354 16.8302 15.2676 17.9183 16.084 17.9771C16.5038 18.0074 16.6569 17.8887 17.299 17.0352C17.5903 16.648 17.901 16.259 17.9894 16.1706C18.2009 15.9595 18.5148 15.9148 18.8668 16.0456C19.3184 16.2134 22.079 17.5559 22.2728 17.7019L22.4584 17.8417L22.4278 18.4218C22.3491 19.911 21.8261 20.6843 20.4426 21.3567C19.1272 21.9959 18.0977 21.9784 16.082 21.2827C13.3777 20.3493 11.9423 19.4578 9.99733 17.5033C9.02409 16.5254 8.33248 15.6986 7.54142 14.5674C6.23791 12.7035 5.73803 11.2642 5.88682 9.80335C6.00612 8.63209 6.41598 7.76747 7.24378 6.9409C7.64421 6.54098 8.16822 6.37635 8.95687 6.40263C9.29147 6.41374 9.53675 6.45053 9.64278 6.5055Z" fill="#C66753"/>
</svg>
